<svg id="Layer_1" xmlns="http://www.w3.org/2000/svg" xmlns:xlink="http://www.w3.org/1999/xlink" viewBox="0 0 369.7 103.1"><style>.st0{fill:#333}</style><path class="st0" d="M133.1 74.4c.4-.1.8-.2 1.1-.4 1-.6 1.5-1.5 1.5-2.8v-6l-3.9 3.5.3.4 1.4-1.1v5.3c.1.4-.2.8-.4 1.1z"/><path class="st0" d="M138.8 75.3s-.5.5-.7.5h-.1c-.1 0-.2-.1-.2-.2v-12h.2c.2-.1.3-.2.4-.4l.2-.2c.2-.3.7-1.4-.1-1.9-.2-.1-.6-.2-.6 0 0 0 .1.1.2.1.2.1.5.3.5.7 0 .4-.4.7-1 .7h-.2c-.4 0-1.2-.3-2.1-.6-.7-.3-1.5-.6-2-.7-.6-.1-1.1-.2-1.6-.2-.6 0-1.2.1-1.7.5-.7.4-1.1.9-1.4 1.5-.3.5-.4 1.3-.2 2.1.3-.7.7-1.3 1.5-1.6.6-.2 1.1-.3 1.7-.3.6 0 1.2.2 1.9.3.7.2 1.4.4 2.4.5h.6c.5 0 .6 0 .7.1.2.1.2.3.2.4v12h-.2c-.5.1-.8.1-1.1.1-.5 0-.9-.1-1.4-.2-1.9-.7-2.7-1.9-3.5-3.1s-.9-2.2-.8-3.5c.1-1.4.5-2.2 1-3.3.5-.9.9-1.4 1.5-2-.3.1-.6.2-1 .4-1.3.7-2.3 1.6-3.1 3.1-.7 1.3-1 2.3-1 3.8 0 .9.2 2.1.6 2.9.4.9 1.4 2.2 2.8 2.9 1.4.7 2.3.8 3.6.6 1.2-.2 1.8-.5 2.7-1.1.6-.4 1-.8 1.4-1.3-.2-.3-.1-.5-.1-.6z"/><path class="st0" d="M148.2 68.3l-2-2.3-.1-.1h-.1l-2.2 2.2s-.2.2-.3.2c-.2 0-.3-.2-.3-.3v-7.1l-1.8.8c-.1 0-.1.1-.2.1-.2 0-.3-.1-.4-.2l-.3-.4v14.6c0 .2-.1.3-.1.4l-.2.2-1.8 1.6.3.3 1.7-1.6c.1 0 .2-.1.3-.1s.3.1.4.2l1.5 1.4h.1l.1-.1 2-1.9-.2-.2-.4.3s-.1.2-.3.2c-.1 0-.3-.1-.3-.2l-.1-.1-.1-.1s-.1-.1-.1-.2c0 0-.1-.1-.1-.2V69l.6-.7c.1-.1.2-.2.3-.2s.2.1.3.2l1 1.2.1.1v9.1c0 .3-.2 1.3-.8 1.9-.5.5-.9.9-1.4 1.1.2 0 .4.1.6.1 1 .1 1.6-.1 2.3-.6.6-.5.7-.6 1.1-1.2.5-.7.8-1.2.8-2v-9.3l.1-.4c.1.1.1.1 0 0zm7.2-2.4c-.1 0-.1 0 0 0-.1-.1-.2-.1-.3-.1l-4.3 2.6c.1.1.2.2.3.2.1.1.3.4.3.6v6.5c0 .2-.1.3-.1.4s-.1.2-.2.2l-1.8 1.6.3.3h.1l1.7-1.6c.1 0 .2-.1.3-.1s.3.1.4.1l1.5 1.4h.1s.1 0 .1.1v-.2l3.1-3.1-.2-.1-1.5 1.6c-.1.1-.2.2-.3.2s-.3-.1-.3-.2l-.1-.1-.1-.1-.1-.1-.1-.1c-.1-.1-.2-.3-.2-.5v-2.1c0-.1.1-.2.2-.3l.1-.1L158 69c.1-.1.1-.2.1-.3 0-.1-.1-.2-.2-.3l-2.5-2.5zm.7 4.8l-1.4 1.3c-.1.1-.2.1-.3.1h-.1c-.2-.1-.3-.2-.3-.4v-3.1c0-.2.1-.3.2-.4h.1c.1 0 .2.1.3.2l1.4 1.4c.1.1.2.2.2.4s0 .4-.1.5zm7.3-.8V68c-.3 0-.5.1-.8.3-.5.3-.9 1-.9 1.8.2-.1.4-.2.7-.2.4-.1.7-.1 1 0zm3.3 2.1v-5.9c0-.4 0-.7.2-1l.3-.6c-.2 0-.4-.1-.6-.1-.6 0-1.1.1-1.4.3-.7.5-1 1.1-1 1.8v5.9c0 .5-.1.9-.3 1.3-.1.2-.3.4-.5.6.2 0 .4.1.5.1.5 0 1-.2 1.5-.5.7-.3 1.3-.9 1.3-1.9z"/><path class="st0" d="M174.3 61.5c-.7-.6-1.5-.9-2.5-.9-.5 0-1 .1-1.7.2-.6.2-1.1.3-1.5.5-.8.3-1.6.5-2.7.5-1.5-.1-2.5-.2-3.7-.6.8.9 1.6 1.4 2.9 1.9 1 .4 1.7.5 2.9.5h.2v11.1h-.8c-.5 0-.9 0-1.4.2-1 .2-1.5.5-2.4 1.1-.4.3-1.8 1.4-1.8 2.9 0 1 .5 1.8 1.5 2.5.5.3 1.1.4 1.7.2-.7-.1-1.3-.4-1.7-.9s-.6-1.1-.4-1.8c.1-.9.9-2 3.4-2 .4 0 .8 0 1.2.1 1.1.1 2.8.7 4.2 2.6l.1.1s.1 0 .1.1l3.6-3.8V64c.1-.9-.4-1.8-1.2-2.5zm-1.7 15l-.4-.3c-.5-.4-.9-.7-1.6-1-.5-.2-.9-.4-1.5-.5h-.2v-3.4l.1-.1c.5-.4 1-.6 1.6-.6.7 0 1.3.2 1.8.7l.1.1.1 5.1zm0-5.7l-.3-.2c-.6-.3-1-.4-1.6-.4-.5 0-.9.1-1.4.3l-.3.1v-3l.3.2c.5.2.8.3 1.4.3.6 0 1-.1 1.6-.4l.3-.2v3.3zm0-3.7c-.6.5-1.1.7-1.8.7h-.1c-.6 0-1.1-.2-1.6-.7l-.1-.1v-3.7l.1-.1c.5-.4 1-.5 1.6-.5h.1c.9 0 1.8.5 1.8 1.5v2.9zm13.6 9l-.4.4c-.1.1-.1.1-.3.1s-.3-.1-.3-.1l-.1-.2v-.1s-.1-.1-.1-.2c-.1-.1-.1-.2-.1-.3v-7.2c0-.1.1-.1.1-.2l.1-.1 1.8-1.8-.3-.2-1.6 1.5c0 .1-.1.2-.3.2h-.1c-.2 0-.3-.2-.4-.2l-1.7-1.8-.1-.1v.2c-.1.2-.3.8-.7 1.1-.6.5-1.1.7-1.8.7h-.4l.3-.4c.1-.2.2-.3.2-.5.1-.4-.1-.7-.4-.9-.1-.1-.3-.2-.5-.2-.3 0-.6.1-.8.4-.4.5-.2 1.4 0 2 .4 1 1.2 2 1.6 2.3l.4.3-.4.1c-.5.2-.8.3-1.3.7-.8.7-1.2 1.4-1.4 2.6-.1.8-.1 1.3.2 2 .2.6.5 1 1.1 1.4.4.3.8.5 1.4.6h.2l1.8-1.7c.1-.1.2-.2.3-.2s.3.1.4.1h.1l1.9 1.7.1.1s.1 0 .1-.1l1.9-1.9-.5-.1c.1 0 0 0 0 0zm-4-.7c0 .7-.8.9-1.5.9-1 0-1.5-1.1-1.6-1.4-.3-.8-.2-1.6.3-2.4.6-.9 1.7-1.4 2.4-1.1.2.1.4.3.4.6v3.4zm0-4.9c0 .1 0 .2-.1.4-.1.1-.3.1-.4.1h-.5c-1.3-.1-2.6-2.1-2.6-2.7v-.4l.3.2c.5.3 1 .4 1.6.4.5 0 1.1-.2 1.2-.2.1-.1.4-.1.4.5l.1 1.7z"/><path class="st0" d="M192.4 76.1s-.1 0 0 0c-.1 0-.1 0 0 0l-.4.3c0 .1-.1.2-.3.2-.1 0-.2-.1-.3-.2l-.1-.1s0-.1-.1-.1l-.1-.1V76s-.1-.1-.1-.2V60.9l-1.8.8c-.1 0-.1.1-.2.1-.2 0-.3-.1-.4-.2l-.3-.4v14.6c0 .2-.1.3-.1.4l-.1.1-.1.1-1.8 1.6.3.3 1.7-1.6c.1-.1.2-.1.3-.1s.3.1.4.2l1.6 1.5s0 .1.1.1c0 0 0-.1.1-.1l.1-.1 1.9-1.9-.3-.2z"/><path class="st0" d="M198.5 76.1l-.4.3c0 .1-.1.2-.3.2-.1 0-.2-.1-.3-.2l-.1-.1s0-.1-.1-.1l-.1-.1V76s-.1-.1-.1-.2V60.9l-1.8.8c-.1 0-.1.1-.2.1-.2 0-.3-.1-.4-.2l-.3-.4v14.6c0 .2-.1.3-.1.4l-.1.1-.1.1-1.8 1.6.3.3 1.7-1.6c.1-.1.2-.1.3-.1s.3.1.4.1l1.6 1.5s0 .1.1.1c0 0 0-.1.1-.1l.1-.1 1.9-1.9-.3-.1zm2 1.6c.4.3.8.5 1.4.6l.1-.1 1.8-1.7c.1-.1.2-.2.3-.2s.3.1.3.1h.1l1.9 1.7.1.1.1-.1 1.9-1.9-.2-.2-.3.3c-.1.1-.1.1-.3.1-.1 0-.2-.1-.3-.1l-.1-.2V76s-.1-.1-.1-.2c-.1-.1-.1-.2-.1-.3v-7.2c0-.1.1-.1.1-.2l.1-.1 1.8-1.8-.3-.2-1.6 1.5c0 .1-.1.2-.3.2h-.1c-.2 0-.3-.2-.4-.2l-1.7-1.8-.1-.1v.2c-.1.2-.3.8-.7 1.1-.6.5-1.1.7-1.8.7h-.4l.3-.4c.1-.2.2-.3.2-.5.1-.4-.1-.7-.4-.9-.1-.1-.3-.2-.5-.2-.3 0-.6.1-.8.4-.4.5-.2 1.4 0 2 .4 1 1.2 2 1.6 2.3l.4.3-.4.1c-.5.2-.8.3-1.3.7-.8.7-1.2 1.4-1.4 2.6-.1.8-.1 1.3.2 2 0 .9.3 1.3.9 1.7zm.3-9.4v-.4l.3.2c.5.3 1 .4 1.6.4.5 0 1.1-.2 1.2-.2.1-.1.4-.1.4.5v1.8c0 .1 0 .2-.1.4-.1.1-.3.1-.4.1h-.5c-1.2-.2-2.5-2.2-2.5-2.8zm.7 4.2c.6-.9 1.7-1.4 2.4-1.1.2.1.4.3.4.6v3.3c0 .7-.8.9-1.5.9-1 0-1.5-1.1-1.6-1.4-.3-.7-.2-1.6.3-2.3zm15.9-9.2c-.1 0-.4-.1-.6-.1h-.2s.1 0 .1.1l.2.1c.5.4 1 .9 1 1.7 0 .8-.4 1.4-1.1 1.6-.1 0-.2.1-.4.1-.5 0-.9-.3-1.2-.5-.1-.1-.1-.1-.2-.1l-.2-.2h-.1l-4.6 2.5-.1.1V72h3.1l-3.1 4.5c-.6.4-1.1 1.6-1.2 2.3 0 .8 0 1.6.6 2 .2.1.5.2.8.2h.1c-.1 0-.2-.1-.2-.1-.6-.6-1.1-1.1-1.1-1.9 0-1.4 1.4-2.1 2.7-2.2s2.4.9 3 1.5c.1.1.1.1.1.2l2.5-2.4v-4.9H214l3.2-4.4c.7-.6.6-2.3.6-2.5.3-.1 0-.8-.4-1zm-2.5 8.8v3.4c0 .2-.1.3-.2.4h-.1c-.1 0-.2 0-.2-.1-.4-.2-.7-.3-1.1-.3-.6 0-1 0-1.6.3l-.7.3 2.7-4h1.2zm-1-1l-.8.1c-.2 0-.3-.1-.4-.2-.1-.1-.1-.2-.1-.3v-3.1l.4.3c.4.3.8.5 1.2.5h.5c.3 0 .5 0 .8-.1l.6-.2-2.2 3zm27.6 5l-.3.3c-.1 0-.2.1-.3.1-.1 0-.2-.1-.3-.1l-.2-.2s-.1-.1-.1-.3V63.1c.1-.1.1-.2.2-.2l1.8-1.7-.3-.3-1.6 1.5c-.1 0-.2.1-.3.1-.2 0-.3-.1-.3-.2l-1.6-1.4h-.1l-2.2 2.3c.8 0 1.6.5 1.6 1.4v2.7l-.1.1c-.2.2-.4.3-.7.3-.2 0-.4-.1-.6-.2l-.1-.1v-2.7h-.5v10.6h.5v-4.1c.1-.2.4-.3.7-.3.3 0 .5.2.6.4v4.5c0 .1 0 .3.1.4 0 0 .1.1.1.2l2 1.9v.1l.1-.1 2-1.9-.1-.3zm-4.2-5.3l-.3-.1c-.2-.1-.3-.1-.4-.1s-.2 0-.4.1l-.3.1v-3.1l.3.1c.3.1.5.1.7-.1l.3-.2.1 3.3z"/><path class="st0" d="M232.6 60.9s-.1 0 0 0l-5.7 5.4c-.2.1-.2.3-.3.5v.1c-.1.3-.2.6-.2.9V74c0 .3-.1.6-.2.9v.1l-.3.6c.7-.1 1.3-.4 1.9-1 .4-.5.7-.8.7-1.3v-7.4c0-.2.1-.4.2-.5 0-.1.1-.1.1-.2.1-.1.1-.3.2-.4l1-1c.1-.1.3-.3.5-.3h.1c.4 0 .9.3.9.8v3.3c-.1.3-.4.5-.7.5s-.6-.2-.7-.4V65h-.5v8.9c0 .4-.2.7-.3 1l-.1.1c-.5.8-1.3 1.1-2.1 1.3-.2.1-.4.1-.6.2-.8.4-1.6 1.1-2 1.7-.3.5-.7 1.7-.3 2.6.4.8 1.2 1.3 2.2 1.3.2 0 .4 0 .6-.1.6-.1.9-.4 1.1-.8-.4.2-.8.2-.9.2-.7-.1-1.2-.7-1.2-1.3.1-1 .8-1.5 1.6-1.9.3-.2.7-.4.9-.6 1-.9 1.6-1.5 1.6-2.7v-3.6c.2-.2.4-.4.7-.3.3 0 .5.2.6.4v4.4c0 .1 0 .3-.1.4 0 0-.1.2-.2.2l-1.8 1.6.3.3 1.8-1.6c.1-.1.2-.1.3-.1s.3.1.4.2l1.5 1.5v.1l.1-.1 2-1.9-.2-.2-.2.2c-.1.1-.2.2-.4.2-.1 0-.2-.1-.3-.1l-.1-.2s-.1-.1-.1-.2c0 0-.2-.1-.2-.2v-11c0-.7.3-1.4.9-1.6l-.1-.1-2.4-2.3zm-1.3 10.2l-.3-.1c-.2-.1-.3-.1-.4-.1-.1 0-.2 0-.3.1l-.3.2V68l.3.1c.3.1.5.1.7-.1l.3-.2v3.3zm-7.3-.4c.2-.1.5-.1.7-.2h1v-1.8c-.3 0-.5.1-.8.3-.5.3-1 1-.9 1.7zm5.3-9.3c-.5.1-.9 0-1.3-.1-.3 0-.5-.1-.8-.1-.2 0-.5 0-.7.1-.9.2-1.5.5-2 1.1-.5.7-.7 1.4-.5 2.2.5-.6 1-.9 1.8-1.2.3-.1.6-.2 1-.2h1.6c.3-.1.4-.2.6-.4l2.1-2c-.5.5-1 .6-1.8.6zm21.3 7l-2.5-2.5-.1-.1h-.2l-4.3 2.4-.1.1-.1.1v7.3c0 .2-.1.3-.1.4s-.1.2-.2.2l-1.8 1.6.3.3h.1l1.7-1.6c.1 0 .2-.1.3-.1.1 0 .3.1.4.1l1.5 1.4h.1s.1 0 .1.1c0 0 .1-.1.2-.1l4.8-2.4s0-.1.1-.1v-7.2c-.1.2-.2.2-.2.1zm-2.6 7.8h-.2c-.2 0-.4-.2-.5-.3l-1.3-1.3c0-.1-.1-.2-.1-.3v-5.8c0-.2 0-.6.3-.7.1 0 .2 0 .3.1l1.2 1.1c.1 0 .1.1.2.2v.1c0 .1.1.3.1.4v6c.1.2.1.4 0 .5zm10.7-9.6c-.2-.3-.5-.6-.5-.6h-.1v.1l-1.8 1.7c-.1 0-.2.1-.3.1-.1 0-.2-.1-.3-.1h-.1l-1.7-1.7-2.1 2.1.2.2.4-.3h.2c.1 0 .2.1.3.2l.4.4c.1.1.1.3.1.3v6.9c0 .2-.1.3-.1.4l-.2.2-1.8 1.6.3.3h.1l1.7-1.6c.1 0 .2-.1.3-.1.1 0 .3.1.4.1l1.5 1.4h.1l.1-.1L258 76l.1-.1-.2-.2-.6.5c-.1.1-.1.2-.3.2-.1 0-.2-.1-.3-.2l-.2-.2-.2-.2c-.1-.1-.1-.1-.1-.3v-7.4h.8c.2 0 .4-.1.6-.2.3-.1.5-.3.9-.2.3.1.7.4.9.7.1-.2.1-.5.1-1-.3-.1-.4-.4-.8-.8zm12.3 9.3l-.7.5c0 .1-.1.2-.3.2-.1 0-.2-.1-.3-.2l-.2-.2c-.1 0-.1-.1-.2-.2s-.1-.1-.1-.3v-7.5c0-.1.1-.1.1-.2l.1-.1 1.7-1.8-.3-.3-1.6 1.6c-.1.1-.3.1-.4.1-.2 0-.3-.1-.3-.2l-1.8-1.7-1.9 1.8c-.1 0-.2.1-.3.1-.1 0-.2-.1-.3-.1h-.1l-1.7-1.7-2.1 2.1.2.2.4-.3h.2c.1 0 .2.1.3.2l.4.4s.1.2.1.3v6.9c0 .2-.1.3-.1.4s-.1.2-.2.2l-1.8 1.6.3.3h.1l1.7-1.6c.1 0 .2-.1.3-.1.1 0 .3.1.4.2l1.5 1.4h.1l.1-.1 1.9-1.8-.2-.2-.3.3s-.1.1-.3.1c-.1 0-.2-.1-.3-.2l-.1-.1-.2-.2c-.1-.1-.1-.2-.1-.3v-7.1c0-.2.1-.3.2-.4v-.1h.1l.1-.1c.1-.1.2-.2.3-.2h.2c.2 0 .3.1.4.2l.6.6c.1 0 .1.1.1.1.1.1.1.2.1.3v6.8l.1.1 2.2 2.2.1.1v-.1l2-2s0-.1.1-.1l-.3.2zm1.6-12.5c0 .1 0 .1 0 0l1.2 1.4 1.4-1.4v-.1h-.1l-1.3-1.2h-.1l-1.1 1.3c-.1 0-.1 0 0 0z"/><path class="st0" d="M277.4 76.1l-.2-.1h-.1l-.6.5c-.1.1-.1.2-.3.2-.1 0-.2-.1-.3-.2l-.2-.2-.2-.2c-.1-.1-.2-.2-.2-.3V68s0-.1-.1-.1l-1.6-1.9-2.4 2.3.2.2.3-.2h.2c.1 0 .2.1.3.1l.5.6c.1.1.1.2.1.3v6.5c0 .2-.1.3-.1.4s-.1.1-.2.2l-1.8 1.6.3.3h.1l1.7-1.6c.1 0 .2-.1.3-.1.1 0 .3.1.4.1l1.5 1.4h.1s.1 0 .1-.1l2.2-1.9c0 .1 0 0 0 0z"/><path class="st0" d="M288.1 75.9l-.7.5c0 .1-.1.2-.3.2-.1 0-.2-.1-.3-.1l-.2-.2c-.1 0-.1-.1-.2-.2s-.1-.1-.1-.3v-7.5c0-.1.1-.1.1-.2l.1-.1 1.7-1.8-.2-.2-1.7 1.6c-.1.1-.3.1-.4.1-.2 0-.3-.1-.3-.2l-1.8-1.7-1.9 1.8s-.2.1-.3.1c-.1 0-.2-.1-.3-.1h-.1l-1.7-1.7-2.1 2.1.2.2.4-.2h.2c.1 0 .2.1.3.2l.4.4s.1.1.1.3v6.9c0 .2-.1.3-.1.4s-.1.2-.2.2l-1.8 1.6.3.3h.1l1.7-1.6c.1 0 .2-.1.3-.1.1 0 .3.1.4.2l1.5 1.4h.1l.1-.1 1.9-1.8-.2-.2-.3.3c0 .1-.1.1-.3.1-.1 0-.2-.1-.3-.2l-.1-.1-.2-.2c-.1-.1-.1-.2-.1-.3v-7.1c0-.2.1-.3.2-.4v-.1h.1l.1-.1c.1-.1.2-.2.3-.2h.2c.2 0 .3.1.4.2l.6.6c.1 0 .1.1.1.1.1.1.1.2.1.3v6.8l.1.1 2.2 2.2.1.1v-.1l2-2s0-.1.1-.1l-.3-.1z"/><path class="st0" d="M298.8 66.2c0 .1-.1.1-.1.1l-1.5 1.4c-.1.1-.2.2-.4.2-.1 0-.2-.1-.3-.1L294 66c-.1 0-.1-.1-.1-.1h-.2l-3.6 2.4c-.1 0-.1.1-.2.2v7.2c0 .2-.1.3-.1.4s-.1.2-.2.2l-1.8 1.6.3.3 1.7-1.6c.1 0 .2-.1.3-.1.1 0 .3.1.4.2l1.5 1.4h.1l.1-.1 1.9-1.8.1-.1-.2-.2h-.1l-.3.3c-.1.1-.1.2-.3.2-.1 0-.2-.1-.3-.1l-.4-.4s-.1-.1-.1-.2v-7.8l2 1.7c.1 0 .2.1.2.3.1.1.1.2.1.3v5.1c0 .8.2 1.3.7 2 .2.4.5.5.7.7.2.1.4.3.6.5.4.5.4.7.3 1v.5l1-1c.5-.5.7-.9.6-1.5s-.3-.8-.7-1.1c-.3-.3-.6-.6-.7-1 0-.1-.1-.2-.1-.3v-6.9l.1-.2 1.6-1.7.1-.1h-.2z"/><path class="st0" d="M293.5 79.1c-1.6.1-2.9.8-3.7 2 .8-.4 1.7-.6 2.4-.6h.3c1 .1 1.4.4 2 .8.1.1.3.2.4.3l.4.3s.1 0 .1.1h.1l1.6-1.6-.3-.2c-1.1-.9-2-1.2-3.3-1.1zm23.4-16.9c-.3 0-.6 0-.9-.1-.7-.1-1.3-.5-1.7-.8-.2-.2-.4-.3-.5-.3-.1-.1-.2-.1-.3-.1-.1 0-.2.1-.3.2l-2.6 2.5.3.3.8-.7c.1-.1.1-.2.3-.2.2 0 .3.1.3.2l.3.3c.2.2.3.3.5.4.5.3.9.4 1.4.4h.2V66l-.1.1c-.5.3-.8.4-1.4.5-.7.1-1.2 0-1.8-.3h-.1l-2.3-3.5c-.9-1.4-1.8-2-2.9-1.9-1 .1-1.7.4-2 1.2-.2.3-.3 1-.1 1.6.3-.6.9-1.1 1.4-1.1 1.5 0 1.8 2.1 1.8 2.2v10.4h-.2c-.6 0-1 .2-1.5.5-.7.4-1.1.8-1.4 1.4-.4.9-.4 2.3.1 3 .8 1.3 1.9 1.6 2.8 1.6h.6c-.8-.1-1.6-.6-1.8-.9-.4-.6-.5-1.3-.3-1.9s.8-1 1.5-1.2c.8-.1 1.5.1 2.4.8l2.4-2.4-.2-.2h-.1l-.6.4c-.1.1-.2.2-.3.2-.1 0-.2-.1-.3-.2-.2-.1-.3-.2-.4-.3-.1-.1-.2-.2-.4-.3-.4-.3-.7-.4-1.2-.5h-.2V73l.1-.1c.5-.3 1-.5 1.7-.6s1.3 0 2.1.3h.1l3.6 5.6v-14h.2c.8 0 1.3-.2 1.9-.8.6-.5 1-1.1 1.1-1.8-.8.5-1.3.6-2 .6zm-8.9 4.6l1.6 2.5-.1.1c-.1.2-.3.3-.6.3h-.2c-.2 0-.4-.1-.6-.2l-.1-.1v-2.6zm3.1 5.5c-.6-.2-1-.2-1.5-.1s-.8.2-1.2.4l-.3.2v-3.2l.3.2c.2.1.5.2.7.1.2 0 .4-.1.6-.3l.2-.2 1.9 3-.7-.1zm3.6-.9l-1.4-1.9.5.1h.3c.1 0 .2 0 .2-.1l.4-.2v2.1zm0-2.6c-.2.3-.4.4-.7.4h-.1c-.3 0-.6-.1-.8-.4l-1.6-2.5.6.2c.4.2.7.2 1.2.2.4 0 .7-.1 1.1-.4l.3-.2v2.7z"/><path class="st0" d="M304.6 71.3c.2-.1.5-.2.7-.2.4-.1.6-.1 1 0v-1.8c-.3 0-.5.1-.8.3-.4.3-.9 1-.9 1.7zm19.5 3.7l-.2-.1h-.1l-1.5 1.6c-.1.1-.2.2-.4.2-.1 0-.3-.1-.3-.2l-.1-.1-.1-.1-.1-.1-.1-.1c-.1-.1-.2-.3-.2-.5v-2.1c0-.1.1-.2.2-.3l.1-.1 3.7-3.9c.1-.1.1-.2.1-.3 0-.1-.1-.2-.2-.3l-2.6-2.6-.1-.1h-.2l-4.3 2.6c.1.1.2.2.3.2.1.1.3.4.3.6v6.5c0 .2-.1.3-.1.4s-.1.2-.2.2l-1.8 1.6.3.3h.1l1.7-1.6c.1 0 .2-.1.3-.1.1 0 .3.1.4.1l1.5 1.4h.1s.1 0 .1.1V78l3.4-3c-.1.1-.1.1 0 0 0 .1 0 0 0 0zm-3-6.3c0-.2.1-.3.2-.4h.1c.1 0 .2.1.3.2l1.4 1.4c.1.1.2.2.2.4 0 .1 0 .3-.1.4l-1.4 1.3c-.1.1-.2.1-.3.1h-.1c-.2-.1-.3-.2-.3-.4v-3z"/><path class="st0" d="M339.1 68.2l1.7-1.9-.3-.3-1.7 1.7c-.1.1-.3.1-.4.1-.2 0-.3-.1-.3-.2l-1.7-1.7-1.8 1.8.1.1.1-.1h.2c.1 0 .2.1.3.2l.6.7c0 .1.1.2.1.3v7.4c0 .1 0 .3-.2.4-.1.1-.3.1-.4 0l-1.3-1c-.1 0-.1-.1-.2-.2 0-.1-.1-.1-.1-.2v-7.4l-2.1-2-1.8 1.9.1.1.1-.1h.2c.2 0 .3.1.3.2l.5.6c.1.1.1.2.1.3V75c0 .1 0 .2-.1.3-.1.1-.2.2-.3.2l-.9.8h-.1c-.2 0-.3-.1-.4-.2s-.2-.2-.2-.4v-9.9c0-.5-.3-.6-.9-.9-.3-.1-.5-.2-.8-.4-1-.7-1.2-1.4-1.2-1.7 0-.1 0-.3-.1-.5 0-.3-.1-.7-.1-.8 0 .1 0 .1-.1.2 0 .2-.2.4-.4.7l-.1.1c-.3.4-.5.7-.5 1.2 0 .4.3.7.6 1l.5.5c.2.3.3.6.3.9v9.7c0 .1 0 .2-.1.3v.1c0 .1-.1.1-.2.2l-1.9 1.7.3.3 1.7-1.6c.1 0 .2-.1.3-.1.1 0 .3 0 .4.2l1.5 1.5.1-.1 2-1.9c.1 0 .2-.1.3-.1.1 0 .3.1.3.1h.1l2.1 2s.1.1.2.1h.2l4.5-2.3v-7c0-.2.1-.3.3-.4l.2-.2c.3-.3.4-.3.4-.4zm9 3h-3.2l3.2-4.4c.7-.6.6-2.3.6-2.5s-.3-.8-.7-1c-.1 0-.4-.1-.6-.1h-.2s.1 0 .1.1l.2.1c.5.4 1 .9 1 1.7 0 .8-.4 1.4-1.1 1.6-.1 0-.2.1-.4.1-.5 0-.9-.3-1.2-.5-.1-.1-.1-.1-.2-.1l-.2-.2h-.1l-4.6 2.5-.1.1V72h3.1l-3.1 4.5c-.6.4-1.1 1.6-1.2 2.3 0 .8 0 1.6.6 2 .2.1.5.2.8.2h.1c-.1 0-.2-.1-.2-.1-.6-.6-1.1-1.1-1.1-1.9 0-1.4 1.4-2.1 2.7-2.2 1.3-.1 2.4.9 3 1.5.1.1.1.1.1.2l2.5-2.4v-4.8c.3 0 .3-.1.2-.1zm-4.4 0c-.2 0-.3-.1-.4-.2s-.1-.2-.1-.3v-3.1l.4.3c.4.3.8.5 1.2.5h.5c.3 0 .5 0 .8-.1l.6-.2-2.2 3-.8.1zm1.7 4.4c0 .2-.1.3-.2.4h-.1c-.1 0-.2 0-.2-.1-.4-.2-.7-.3-1.1-.3-.6 0-1 0-1.6.3l-.7.3 2.7-4h1.2v3.4zm-243.7 0V77h-2V64.6h2v5c.7-1 1.6-1.7 3.1-1.7 2.1 0 4.2 1.7 4.2 4.7s-2.1 4.7-4.2 4.7c-1.5-.1-2.5-.8-3.1-1.7zm5.3-3c0-1.8-1.2-3-2.6-3s-2.7 1.2-2.7 3 1.3 3 2.7 3c1.4-.1 2.6-1.2 2.6-3zm11.2-4.6h2.1l-3.6 9.3c-.7 1.9-1.5 2.5-3 2.5-.8 0-1.5-.2-2.1-.5l.7-1.5c.4.2.8.4 1.2.4.6 0 1-.3 1.3-1.1l-3.8-9h2.1l2.6 6.8 2.5-6.9z"/><linearGradient id="SVGID_1_" gradientUnits="userSpaceOnUse" x1="91.117" y1="54.618" x2="22.536" y2="92.408" gradientTransform="matrix(1 0 0 -1 0 106)"><stop offset="0" stop-color="#e4545b"/><stop offset=".131" stop-color="#d55a67"/><stop offset=".382" stop-color="#ae6b86"/><stop offset=".724" stop-color="#7086b9"/><stop offset="1" stop-color="#399ee5"/></linearGradient><path d="M44.6 0L0 25.8l44.6 25.7V0z" fill="url(#SVGID_1_)"/><linearGradient id="SVGID_2_" gradientUnits="userSpaceOnUse" x1="44.648" y1="54.473" x2="66.952" y2="93.103" gradientTransform="matrix(1 0 0 -1 0 106)"><stop offset="0" stop-color="#24425d"/><stop offset=".02" stop-color="#264c6b"/><stop offset=".072" stop-color="#2b628c"/><stop offset=".131" stop-color="#3075a8"/><stop offset=".197" stop-color="#3384be"/><stop offset=".274" stop-color="#3690d0"/><stop offset=".366" stop-color="#3898dc"/><stop offset=".493" stop-color="#399de3"/><stop offset=".81" stop-color="#399ee5"/></linearGradient><path d="M89.3 25.8L44.6 0v51.5l44.7-25.7z" fill="url(#SVGID_2_)"/><linearGradient id="SVGID_3_" gradientUnits="userSpaceOnUse" x1="50.219" y1="78.597" x2="106.407" y2="40.824" gradientTransform="matrix(1 0 0 -1 0 106)"><stop offset=".19" stop-color="#399ee5"/><stop offset=".507" stop-color="#399de3"/><stop offset=".634" stop-color="#3898dc"/><stop offset=".727" stop-color="#3690d0"/><stop offset=".803" stop-color="#3384be"/><stop offset=".869" stop-color="#3075a8"/><stop offset=".928" stop-color="#2b628c"/><stop offset=".98" stop-color="#264c6b"/><stop offset="1" stop-color="#24425d"/></linearGradient><path d="M89.3 77.3V25.8L44.6 51.5l44.7 25.8z" fill="url(#SVGID_3_)"/><linearGradient id="SVGID_4_" gradientUnits="userSpaceOnUse" x1="111.09" y1="55.307" x2="-28.739" y2="54.228" gradientTransform="matrix(1 0 0 -1 0 106)"><stop offset="0" stop-color="#e4545b"/><stop offset=".131" stop-color="#d55a67"/><stop offset=".382" stop-color="#ae6b86"/><stop offset=".724" stop-color="#7086b9"/><stop offset="1" stop-color="#399ee5"/></linearGradient><path d="M0 25.8v51.5l44.6-25.8L0 25.8z" fill="url(#SVGID_4_)"/><linearGradient id="SVGID_5_" gradientUnits="userSpaceOnUse" x1="8.465" y1="28.7" x2="89.498" y2="28.7" gradientTransform="matrix(1 0 0 -1 0 106)"><stop offset="0" stop-color="#399ee5"/><stop offset="1" stop-color="#346485"/></linearGradient><path d="M44.6 103.1l44.7-25.8-44.7-25.8v51.6z" fill="url(#SVGID_5_)"/><linearGradient id="SVGID_6_" gradientUnits="userSpaceOnUse" x1="11.991" y1="47.258" x2="110.663" y2="-8.897" gradientTransform="matrix(1 0 0 -1 0 106)"><stop offset="0" stop-color="#346485"/><stop offset="1" stop-color="#399ee5"/></linearGradient><path d="M0 77.3l44.6 25.8V51.5L0 77.3z" fill="url(#SVGID_6_)"/><linearGradient id="SVGID_7_" gradientUnits="userSpaceOnUse" x1="-20.386" y1="78.689" x2="397.08" y2="-158.894" gradientTransform="matrix(1 0 0 -1 0 106)"><stop offset="0" stop-color="#346485"/><stop offset="1" stop-color="#399ee5"/></linearGradient><path d="M89.3 77.3L44.7 51.5 0 25.7v25.9l66.9 38.6 22.4-12.9z" opacity=".2" fill="url(#SVGID_7_)"/><linearGradient id="SVGID_8_" gradientUnits="userSpaceOnUse" x1="-224.638" y1="78.678" x2="192.827" y2="-158.905" gradientTransform="rotate(180 -57.46 53)"><stop offset="0" stop-color="#346485"/><stop offset="1" stop-color="#399ee5"/></linearGradient><path d="M0 77.3l44.7-25.8 44.6-25.8v25.9L22.5 90.2 0 77.3z" opacity=".2" fill="url(#SVGID_8_)"/><image width="70" height="59" xlink:href="763A80A97A66C243.png" transform="translate(11.512 22.421) scale(.9857)" overflow="visible" opacity=".2"/><linearGradient id="SVGID_9_" gradientUnits="userSpaceOnUse" x1="31.402" y1="46.568" x2="35.159" y2="69.362" gradientTransform="matrix(1 0 0 -1 0 106)"><stop offset="0" stop-color="#fff"/><stop offset=".327" stop-color="#fdfdfd"/><stop offset=".472" stop-color="#f6f6f6"/><stop offset=".581" stop-color="#e9e9e9"/><stop offset=".672" stop-color="#d7d7d7"/><stop offset=".752" stop-color="silver"/><stop offset=".824" stop-color="#a3a3a3"/><stop offset=".89" stop-color="gray"/><stop offset=".95" stop-color="#5a5a5a"/><stop offset="1" stop-color="#333"/></linearGradient><path d="M24.8 42l-5.4 17.3L46.3 42H24.8z" fill="url(#SVGID_9_)"/><linearGradient id="SVGID_10_" gradientUnits="userSpaceOnUse" x1="24.8" y1="72.6" x2="119.489" y2="72.6" gradientTransform="matrix(1 0 0 -1 0 106)"><stop offset="0" stop-color="#fff"/><stop offset=".187" stop-color="#fdfdfd"/><stop offset=".255" stop-color="#f6f6f6"/><stop offset=".303" stop-color="#ebeaeb"/><stop offset=".342" stop-color="#dadada"/><stop offset=".375" stop-color="#c5c4c4"/><stop offset=".405" stop-color="#aaa8a9"/><stop offset=".431" stop-color="#8a8888"/><stop offset=".456" stop-color="#656263"/><stop offset=".478" stop-color="#3d393a"/><stop offset=".49" stop-color="#231f20"/></linearGradient><path d="M76.1 42H24.8l5.4-17.2h29.7L76.1 42z" fill="url(#SVGID_10_)"/><linearGradient id="SVGID_11_" gradientUnits="userSpaceOnUse" x1="13.8" y1="38.1" x2="118.548" y2="38.1" gradientTransform="matrix(1 0 0 -1 0 106)"><stop offset="0" stop-color="#fff"/><stop offset=".187" stop-color="#fdfdfd"/><stop offset=".255" stop-color="#f6f6f6"/><stop offset=".303" stop-color="#ebeaeb"/><stop offset=".342" stop-color="#dadada"/><stop offset=".375" stop-color="#c5c4c4"/><stop offset=".405" stop-color="#aaa8a9"/><stop offset=".431" stop-color="#8a8888"/><stop offset=".456" stop-color="#656263"/><stop offset=".478" stop-color="#3d393a"/><stop offset=".49" stop-color="#231f20"/></linearGradient><path d="M70.5 59.3L43.6 76.5H13.8l5.6-17.2h51.1z" fill="url(#SVGID_11_)"/><path d="M70.5 59.3L43.6 76.5l16.3-51.7L76.1 42l-5.6 17.3z" fill="#fff"/><path class="st0" d="M99.6 27.5h10.3c9.4 0 14.9 5.5 14.9 13.1v.1c0 7.6-5.6 13.3-15.1 13.3H99.6V27.5zM107 34v13.5h3c4.4 0 7.3-2.4 7.3-6.7v-.1c0-4.2-2.9-6.7-7.3-6.7h-3zm27.9-6.7h7.1L153.2 54h-7.9l-1.9-4.8h-10.3l-1.9 4.8h-7.7l11.4-26.7zm6.4 16.2l-3-7.5-3 7.5h6zm14.4-16h7.3v20.1h12.8V54h-20.2l.1-26.5zm23.1 0h7.3v20.1H199V54h-20.2V27.5zm33-.2h7.1L230.2 54h-7.9l-1.9-4.8h-10.3l-1.9 4.8h-7.7l11.3-26.7zm6.4 16.2l-3-7.5-3 7.5h6zm12.1 6.6l4.1-4.9c2.7 2.1 5.5 3.2 8.6 3.2 2 0 3.1-.7 3.1-1.8v-.1c0-1.1-.9-1.7-4.5-2.6-5.6-1.3-10-2.9-10-8.3v-.1c0-4.9 3.9-8.5 10.3-8.5 4.5 0 8 1.2 10.9 3.5l-3.7 5.2c-2.4-1.7-5.1-2.6-7.4-2.6-1.8 0-2.7.7-2.7 1.7v.1c0 1.2.9 1.7 4.6 2.6 6.1 1.3 9.8 3.3 9.8 8.3v.1c0 5.4-4.3 8.6-10.7 8.6-4.6 0-9.1-1.5-12.4-4.4zM280 54l-18.6-23.5V54h-1.9V27.5h1.9l18.3 23v-23h1.9V54H280zm7 0V27.5h18.8v1.8H289v10.4h15.2v1.8H289v10.6h17V54h-19zm51.2.2h-1.6l-7.8-23-7.8 23h-1.6l-9.6-26.7h2.2l8.3 23.6 7.8-23.6h1.5l7.8 23.6 8.3-23.6h2l-9.5 26.7zm21.7.2c-4.2 0-7.5-1.4-10.7-4.2l1.3-1.5c2.9 2.7 5.6 3.9 9.5 3.9 4 0 6.7-2.2 6.7-5.3v-.1c0-2.8-1.5-4.4-7.5-5.6-6.4-1.3-8.9-3.4-8.9-7.5V34c0-3.9 3.6-7 8.5-7 3.9 0 6.4 1.1 9.1 3.2l-1.2 1.6c-2.5-2.2-5-3-7.9-3-3.9 0-6.5 2.2-6.5 5v.2c0 2.8 1.4 4.5 7.7 5.8 6.1 1.2 8.7 3.4 8.7 7.3v.1c0 4.2-3.7 7.2-8.8 7.2z"/></svg>