<svg version="1.1" id="Layer_1" xmlns="http://www.w3.org/2000/svg" x="0" y="0" viewBox="0 0 357 34.7" xml:space="preserve"><style>.st0{fill:#333}</style><path class="st0" d="M8.6 22.3c.6-.2 1.3-.3 1.8-.6 1.6-1 2.4-2.4 2.4-4.5V7.4l-6.3 5.7.5.6L9.2 12v8.6c.2.6-.3 1.2-.6 1.7z"/><path class="st0" d="M17.8 23.8s-.8.8-1.1.8h-.2c-.2 0-.3-.2-.3-.3V4.8h.3c.3-.2.5-.3.6-.6l.3-.3c.3-.5 1.1-2.3-.2-3.1-.3-.2-1-.3-1 0 0 0 .2.2.3.2.3.2.8.5.8 1.1s-.6 1.1-1.6 1.1h-.3c-.6 0-1.9-.5-3.4-1-1.1-.5-2.4-1-3.2-1.1C7.9 1 7.1.8 6.3.8c-1 0-1.9.2-2.7.8-1.2.7-1.8 1.5-2.3 2.4-.5.8-.7 2.1-.3 3.4.5-1.1 1.1-2.1 2.4-2.6 1-.3 1.8-.5 2.7-.5 1 0 1.9.3 3.1.5 1.1.3 2.3.6 3.9.8h1c.8 0 1 0 1.1.2.3.2.3.5.3.6v19.4h-.3c-.8.2-1.3.2-1.8.2-.8 0-1.5-.2-2.3-.3-3.1-1.1-4.4-3.1-5.7-5S4 17.1 4.2 15c.2-2.3.8-3.6 1.6-5.3.8-1.5 1.5-2.3 2.4-3.2-.5.2-1 .3-1.6.6-2.1 1.1-3.7 2.6-5 5C.5 14.2 0 15.8 0 18.3c0 1.5.3 3.4 1 4.7.6 1.5 2.3 3.6 4.5 4.7 2.3 1.1 3.7 1.3 5.8 1 1.9-.3 2.9-.8 4.4-1.8 1-.6 1.6-1.3 2.3-2.1-.4-.6-.2-.9-.2-1z"/><path class="st0" d="M33 12.4l-3.2-3.7-.2-.2h-.2l-3.6 3.6s-.3.3-.5.3c-.3 0-.5-.3-.5-.5V.5L22 1.8c-.2 0-.2.2-.3.2-.3 0-.5-.2-.6-.3l-.6-.7v23.6c0 .3-.2.5-.2.6l-.3.3-2.9 2.6.5.5 2.7-2.6c.2 0 .3-.2.5-.2s.5.2.6.3l2.4 2.3h.2l.2-.2 3.2-3.1-.3-.3-.6.5s-.2.3-.5.3c-.2 0-.5-.2-.5-.3l-.2-.2-.1-.1s-.2-.2-.2-.3c0 0-.2-.2-.2-.3V13.6l1-1.1c.2-.2.3-.3.5-.3s.3.2.5.3l1.6 1.9.2.2v14.7c0 .5-.3 2.1-1.3 3.1-.8.8-1.5 1.5-2.3 1.8.3 0 .6.2 1 .2 1.6.2 2.6-.2 3.7-1 1-.8 1.1-1 1.8-1.9.8-1.1 1.3-1.9 1.3-3.2v-15l.2-.9c.1.2.1.2 0 0zm11.6-3.8c-.2 0-.2 0 0 0-.2-.2-.3-.2-.5-.2l-6.9 4.2c.2.2.3.3.5.3.2.2.5.6.5 1v10.5c0 .3-.2.5-.2.6s-.2.3-.3.3l-3 2.7.5.5h.2l2.7-2.6c.2 0 .3-.2.5-.2s.5.2.6.2l2.4 2.3h.2s.2 0 .2.2V28l5-5-.3-.2-2.4 2.6c-.2.2-.3.3-.5.3s-.5-.2-.5-.3l-.2-.2-.1-.2-.2-.2-.2-.2c-.2-.2-.3-.5-.3-.8v-3.4c0-.2.2-.3.3-.5l.2-.2 6-6.3c.2-.2.2-.3.2-.5s-.2-.3-.3-.5l-4.1-3.8zm1.1 7.7l-2.3 2.1c-.2.2-.3.2-.5.2h-.2c-.3-.2-.5-.3-.5-.6v-5c0-.3.2-.5.3-.6h.2c.2 0 .3.2.5.3l2.3 2.3c.2.2.3.3.3.6s.1.6-.1.7zM57.5 15v-3c-.5 0-.8.2-1.3.5-.8.5-1.5 1.6-1.5 2.9.3-.2.6-.3 1.1-.3.8-.2 1.2-.2 1.7-.1zm5.4 3.4V8.9c0-.6 0-1.1.3-1.6l.5-1c-.3 0-.6-.2-1-.2-1 0-1.8.2-2.3.5-1.1.8-1.6 1.8-1.6 2.9V19c0 .8-.2 1.5-.5 2.1-.2.3-.5.6-.8 1 .3 0 .6.2.8.2.8 0 1.6-.3 2.4-.8 1.2-.5 2.2-1.5 2.2-3.1z"/><path class="st0" d="M75.1 1.5C74 .5 72.7 0 71.1 0c-.8 0-1.6.2-2.7.3-1 .3-1.8.5-2.4.8-1.3.5-2.6.8-4.4.8-2.4-.2-4-.3-6-1 1.3 1.5 2.6 2.3 4.7 3.1 1.6.7 2.7.8 4.7.8h.3v17.9H64c-.8 0-1.5 0-2.3.3-1.6.3-2.4.8-3.9 1.8-.6.5-2.9 2.3-2.9 4.7 0 1.6.8 2.9 2.4 4 .8.5 1.8.6 2.7.3-1.1-.2-2.1-.6-2.7-1.5-.6-.8-1-1.8-.6-2.9.2-1.5 1.5-3.2 5.5-3.2.6 0 1.3 0 1.9.2 1.8.2 4.5 1.1 6.8 4.2l.2.2s.2 0 .2.2l5.8-6.1V5.5c.1-1.5-.7-2.9-2-4zm-2.7 24.2l-.6-.5c-.8-.6-1.5-1.1-2.6-1.6-.8-.3-1.5-.6-2.4-.8h-.3v-5.5l.2-.2c.8-.6 1.6-1 2.6-1 1.1 0 2.1.3 2.9 1.1l.2.2v8.3zm0-9.2l-.5-.3c-1-.5-1.6-.6-2.6-.6-.8 0-1.5.2-2.3.5l-.5.2v-4.8l.5.3c.8.3 1.3.5 2.3.5 1 0 1.6-.2 2.6-.6l.5-.3v5.1zm0-6c-1 .8-1.8 1.1-2.9 1.1h-.2c-1 0-1.8-.3-2.6-1.1l-.2-.2v-6l.2-.2c.8-.6 1.6-.8 2.6-.8h.2c1.5 0 2.9.8 2.9 2.4v4.8zm22 14.5l-.6.6c-.2.2-.2.2-.5.2s-.5-.2-.5-.2l-.2-.3v-.2s-.2-.2-.2-.3c-.2-.2-.2-.3-.2-.5V12.8c0-.2.2-.2.2-.3l.2-.2 2.9-2.9-.5-.3-2.6 2.4c0 .2-.2.3-.5.3h-.2c-.3 0-.5-.3-.6-.3l-2.7-2.9-.2-.2v.3c-.2.3-.5 1.3-1.1 1.8-1 .8-1.8 1.1-2.9 1.1h-.6l.4-.6c.2-.3.3-.5.3-.8.2-.6-.2-1.1-.6-1.5-.2-.2-.5-.3-.8-.3-.5 0-1 .2-1.3.6-.6.8-.3 2.3 0 3.2.6 1.6 1.9 3.2 2.6 3.7l.6.5-.6.2c-.8.3-1.3.5-2.1 1.1-1.3 1.1-1.9 2.3-2.3 4.2-.2 1.3-.2 2.1.3 3.2.3 1 .8 1.6 1.8 2.3.6.5 1.3.8 2.3 1h.3l2.9-2.7c.2-.2.3-.3.5-.3s.5.2.6.2h.2l3.1 2.7.2.2s.2 0 .2-.2l3.1-3.1-.9-.2c.1 0 0 0 0 0zm-6.5-1.1c0 1.1-1.3 1.5-2.4 1.5-1.6 0-2.4-1.8-2.6-2.3-.5-1.3-.3-2.6.5-3.9 1-1.5 2.7-2.3 3.9-1.8.3.2.6.5.6 1v5.5zm0-7.9c0 .2 0 .3-.2.6-.2.2-.5.2-.6.2h-.8c-2.1-.2-4.2-3.4-4.2-4.4v-.6l.5.3c.8.5 1.6.6 2.6.6.8 0 1.8-.3 1.9-.3.2-.2.6-.2.6.8l.2 2.8z"/><path class="st0" d="M104.4 25s-.2 0 0 0c-.2 0-.2 0 0 0l-.6.5c0 .2-.2.3-.5.3-.2 0-.3-.2-.5-.3l-.2-.2s0-.2-.2-.2l-.2-.2v-.2s-.2-.2-.2-.3V.5l-2.9 1.3c-.2 0-.2.2-.3.2-.3 0-.5-.2-.6-.3l-.4-.7v23.6c0 .3-.2.5-.2.6l-.2.2-.2.2-2.9 2.6.5.5 2.7-2.6c.2-.2.3-.2.5-.2s.5.2.6.3l2.6 2.4s0 .2.2.2c0 0 0-.2.2-.2l.2-.2 3.1-3.1-.5-.3z"/><path class="st0" d="M114.3 25l-.6.5c0 .2-.2.3-.5.3-.2 0-.3-.2-.5-.3l-.2-.2s0-.2-.2-.2l-.2-.2v-.2s-.2-.2-.2-.3V.5L109 1.8c-.2 0-.2.2-.3.2-.3 0-.5-.2-.6-.3l-.5-.7v23.6c0 .3-.2.5-.2.6l-.2.2-.2.2-2.9 2.6.5.5 2.7-2.6c.2-.2.3-.2.5-.2s.5.2.6.2l2.6 2.4s0 .2.2.2c0 0 0-.2.2-.2l.2-.2 3.1-3.1-.4-.2zm3.2 2.6c.6.5 1.3.8 2.3 1l.2-.2 2.9-2.7c.2-.2.3-.3.5-.3s.5.2.5.2h.2l3.1 2.7.2.2.2-.2 3.1-3.1-.3-.3-.5.5c-.2.2-.2.2-.5.2-.2 0-.3-.2-.5-.2l-.2-.3v-.2s-.2-.2-.2-.3c-.2-.2-.2-.3-.2-.5V12.4c0-.2.2-.2.2-.3l.2-.2 2.9-2.9-.5-.3-2.6 2.4c0 .2-.2.3-.5.3h-.2c-.3 0-.5-.3-.6-.3l-2.7-2.9-.2-.2v.3c-.2.3-.5 1.3-1.1 1.8-1 .8-1.8 1.1-2.9 1.1h-.6l.5-.6c.2-.3.3-.5.3-.8.2-.6-.2-1.1-.6-1.5-.2-.2-.5-.3-.8-.3-.5 0-1 .2-1.3.6-.6.8-.3 2.3 0 3.2.6 1.6 1.9 3.2 2.6 3.7l.6.5-.6.2c-.8.3-1.3.5-2.1 1.1-1.3 1.1-1.9 2.3-2.3 4.2-.2 1.3-.2 2.1.3 3.2-.3 1.6.2 2.3 1.2 2.9zm.5-15.2v-.6l.5.3c.8.5 1.6.6 2.6.6.8 0 1.8-.3 1.9-.3.2-.2.6-.2.6.8v2.9c0 .2 0 .3-.2.6-.2.2-.5.2-.6.2h-.8c-1.9-.3-4-3.5-4-4.5zm1.1 6.8c1-1.5 2.7-2.3 3.9-1.8.3.2.6.5.6 1v5.3c0 1.1-1.3 1.5-2.4 1.5-1.6 0-2.4-1.8-2.6-2.3-.5-1.1-.3-2.5.5-3.7zm25.7-14.8c-.2 0-.6-.2-1-.2h-.3s.2 0 .2.2l.3.2c.8.6 1.6 1.5 1.6 2.7s-.6 2.3-1.8 2.6c-.2 0-.3.2-.6.2-.8 0-1.5-.5-1.9-.8-.2-.2-.2-.2-.3-.2l-.3-.3h-.2l-7.4 4-.2.2v5.5h5l-5 7.3c-1 .6-1.8 2.6-1.9 3.7 0 1.3 0 2.6 1 3.2.3.2.8.3 1.3.3h.2c-.2 0-.3-.2-.3-.2-1-1-1.8-1.8-1.8-3.1 0-2.3 2.3-3.4 4.4-3.6s3.9 1.5 4.8 2.4c.2.2.2.2.2.3l4-3.9V17h-5.3l5.2-7.1c1.1-1 1-3.7 1-4 .2-.1-.3-1.2-.9-1.5zm-4 14.2v5.5c0 .3-.2.5-.3.6h-.2c-.2 0-.3 0-.3-.2-.6-.3-1.1-.5-1.8-.5-1 0-1.6 0-2.6.5l-1.1.5 4.4-6.5 1.9.1zm-1.7-1.6l-1.3.2c-.3 0-.5-.2-.6-.3-.2-.2-.2-.3-.2-.5v-5l.6.5c.6.5 1.3.8 1.9.8h.8c.5 0 .8 0 1.3-.2l1-.3c.1-.1-3.5 4.8-3.5 4.8zm44.6 8l-.5.5c-.2 0-.3.2-.5.2s-.3-.2-.5-.2l-.3-.3s-.2-.2-.2-.5V4c.2-.2.2-.3.3-.3l3-2.7-.5-.5-2.5 2.4c-.2 0-.3.2-.5.2-.3 0-.5-.2-.5-.3L178.4.5h-.2l-3.6 3.7c1.3 0 2.6.8 2.6 2.3v4.4l-.2.2c-.3.3-.6.5-1.1.5-.3 0-.6-.2-1-.3l-.2-.2V6.6h-.8v17.1h.8v-6.6c.2-.3.6-.5 1.1-.5.5 0 .8.3 1 .6v7.3c0 .2 0 .5.2.6 0 0 .2.2.2.3l3.2 3.1v.2l.2-.2 3.2-3.1-.1-.4zm-6.7-8.5l-.5-.2c-.3-.2-.5-.2-.6-.2s-.3 0-.6.2l-.5.2v-5l.5.2c.5.2.8.2 1.1-.2l.5-.3.1 5.3z"/><path class="st0" d="M169.4.5s-.2 0 0 0l-9.2 8.7c-.3.2-.3.5-.5.8v.2c-.2.5-.3 1-.3 1.5v10c0 .5-.2 1-.3 1.5v.2l-.5 1c1.1-.2 2.1-.6 3.1-1.6.6-.8 1.1-1.3 1.1-2.1v-12c0-.3.2-.6.3-.8 0-.2.2-.2.2-.3.2-.2.2-.5.3-.6l1.6-1.6c.2-.2.5-.5.8-.5h.2c.6 0 1.5.5 1.5 1.3v5.3c-.2.5-.6.8-1.1.8-.5 0-1-.3-1.1-.6V7.1h-.8v14.4c0 .6-.3 1.1-.5 1.6l-.2.2c-.8 1.3-2.1 1.8-3.4 2.1-.3.2-.6.2-1 .3-1.3.6-2.6 1.8-3.2 2.7-.5.8-1.1 2.7-.5 4.2.6 1.3 1.9 2.1 3.6 2.1.3 0 .6 0 1-.2 1-.2 1.5-.6 1.8-1.3-.6.3-1.3.3-1.5.3-1.1-.2-1.9-1.1-1.9-2.1.2-1.6 1.3-2.4 2.6-3.1.5-.3 1.1-.6 1.5-1 1.6-1.5 2.6-2.4 2.6-4.4v-5.8c.3-.3.6-.6 1.1-.5.5 0 .8.3 1 .6v7.1c0 .2 0 .5-.2.6 0 0-.2.3-.3.3l-2.9 2.6.5.5 2.9-2.6c.2-.2.3-.2.5-.2s.5.2.6.3l2.4 2.4v.2l.2-.2 3.2-3.1-.3-.3-.3.3c-.2.2-.3.3-.6.3-.2 0-.3-.2-.5-.2l-.2-.3s-.2-.2-.2-.3c0 0-.3-.2-.3-.3V6.9c0-1.1.5-2.3 1.5-2.6l-.2-.2c-.3.1-4.1-3.6-4.1-3.6zM167.3 17l-.5-.2c-.3-.2-.5-.2-.6-.2-.2 0-.3 0-.5.2l-.5.3V12l.5.2c.5.2.8.2 1.1-.2l.5-.3V17zm-11.8-.7c.3-.2.8-.2 1.1-.3h1.6v-2.9c-.5 0-.8.2-1.3.5-.8.5-1.6 1.6-1.4 2.7zm8.5-15c-.8.2-1.5 0-2.1-.2-.5 0-.8-.2-1.3-.2-.3 0-.8 0-1.1.2-1.5.3-2.4.8-3.2 1.8-.8 1.1-1.1 2.3-.8 3.6.8-1 1.6-1.5 2.9-1.9.5-.2 1-.3 1.6-.3h2.6c.5-.2.6-.3 1-.6L167 .5c-.9.6-1.7.8-3 .8zm34.5 11.3l-4-4-.2-.2h-.3l-6.9 3.9-.2.2-.2.2v11.8c0 .3-.2.5-.2.6s-.2.3-.3.3l-2.9 2.6.5.5h.2l2.7-2.6c.2 0 .3-.2.5-.2s.5.2.6.2l2.4 2.3h.2s.2 0 .2.2c0 0 .2-.2.3-.2l7.8-3.9s0-.2.2-.2V12.4c-.3.4-.4.4-.4.2zm-4.2 12.6h-.3c-.3 0-.6-.3-.8-.5l-2.1-2.1c0-.2-.2-.3-.2-.5v-9.4c0-.3 0-1 .5-1.1.2 0 .3 0 .5.2l1.9 1.8c.2 0 .2.2.3.3v.2c0 .2.2.5.2.6v9.7c.1.3.1.6 0 .8zm17.2-15.5c-.3-.5-.8-1-.8-1h-.2v.2l-2.9 2.7c-.2 0-.3.2-.5.2s-.3-.2-.5-.2h-.2l-2.7-2.7-3.4 3.4.3.3.6-.5h.3c.2 0 .3.2.5.3l.6.6c.2.2.2.5.2.5v11.2c0 .3-.2.5-.2.6l-.3.3-2.9 2.6.5.5h.2l2.7-2.6c.2 0 .3-.2.5-.2s.5.2.6.2l2.4 2.3h.2l.2-.2 3.6-3.4.2-.2-.3-.3-1 .8c-.2.2-.2.3-.5.3-.2 0-.3-.2-.5-.3l-.3-.3-.3-.3c-.2-.2-.2-.2-.2-.5V12h1.3c.3 0 .6-.2 1-.3.5-.2.8-.5 1.5-.3.5.2 1.1.6 1.5 1.1.2-.3.2-.8.2-1.6-.5-.1-.7-.6-1.4-1.2zm19.9 15l-1.1.8c0 .2-.2.3-.5.3-.2 0-.3-.2-.5-.3l-.3-.3c-.2 0-.2-.2-.3-.3-.2-.2-.2-.2-.2-.5V12.3c0-.2.2-.2.2-.3l.2-.2 2.7-2.9-.5-.5-2.6 2.6c-.2.2-.5.2-.6.2-.3 0-.5-.2-.5-.3l-2.9-2.7-3.1 2.9c-.2 0-.3.2-.5.2s-.3-.2-.5-.2h-.2l-2.7-2.7-3.4 3.4.3.3.6-.5h.3c.2 0 .3.2.5.3l.6.6s.2.3.2.5v11.2c0 .3-.2.5-.2.6 0 .2-.2.3-.3.3l-2.9 2.6.5.5h.2l2.7-2.6c.2 0 .3-.2.5-.2s.5.2.6.3l2.4 2.3h.2l.2-.2 3.1-2.9-.3-.3-.5.5s-.2.2-.5.2c-.2 0-.3-.2-.5-.3l-.2-.2-.3-.3c-.2-.2-.2-.3-.2-.5V12.4c0-.3.2-.5.3-.6v-.2h.2l.2-.2c.2-.2.3-.3.5-.3h.3c.3 0 .5.2.6.3l1 1c.2 0 .2.2.2.2.2.2.2.3.2.5v11l.2.2 3.6 3.6.2.2v-.2l3.2-3.2s0-.2.2-.2l-.6.2zM234 4.5c0 .2 0 .2 0 0l1.9 2.3 2.3-2.3v-.1h-.2l-2.1-1.9h-.2l-1.7 2c-.2 0-.2 0 0 0z"/><path class="st0" d="M241.8 25l-.3-.2h-.2l-1 .8c-.2.2-.2.3-.5.3-.2 0-.3-.2-.5-.3l-.3-.3-.3-.3c-.2-.2-.3-.3-.3-.5V12s0-.2-.2-.2l-2.6-3.1-3.9 3.7.3.3.5-.3h.3c.2 0 .3.2.5.2l.8 1c.2.2.2.3.2.5v10.5c0 .3-.2.5-.2.6s-.2.2-.3.3l-2.9 2.6.5.5h.2l2.7-2.6c.2 0 .3-.2.5-.2s.5.2.6.2l2.4 2.3h.2s.2 0 .2-.2l3.6-3.1c0 .2 0 0 0 0z"/><path class="st0" d="M259.1 24.7l-1.1.8c0 .2-.2.3-.5.3-.2 0-.3-.2-.5-.2l-.3-.3c-.2 0-.2-.2-.3-.3s-.2-.2-.2-.5V12.4c0-.2.2-.2.2-.3l.2-.2 2.7-2.9-.3-.3-2.7 2.6c-.2.2-.5.2-.6.2-.3 0-.5-.2-.5-.3l-2.9-2.7-3.1 2.9s-.3.2-.5.2-.3-.2-.5-.2h-.2l-2.7-2.7-3.4 3.4.3.3.6-.3h.3c.2 0 .3.2.5.3l.6.6s.2.2.2.5v11.2c0 .3-.2.5-.2.6s-.2.3-.3.3l-2.9 2.6.5.5h.2l2.7-2.6c.2 0 .3-.2.5-.2s.5.2.6.3l2.4 2.3h.2l.2-.2 3.1-2.9-.4-.4-.5.5c0 .2-.2.2-.5.2-.2 0-.3-.2-.5-.3l-.2-.2-.3-.3c-.2-.2-.2-.3-.2-.5V12.9c0-.3.2-.5.3-.6v-.2h.2l.2-.2c.2-.2.3-.3.5-.3h.3c.3 0 .5.2.6.3l1 1c.2 0 .2.2.2.2.2.2.2.3.2.5v11l.2.2 3.6 3.6.2.2v-.2l3.2-3.2s0-.2.2-.2l-.6-.3z"/><path class="st0" d="M276.3 9.1c0 .2-.2.2-.2.2l-2.4 2.3c-.2.2-.3.3-.6.3-.2 0-.3-.2-.5-.2l-4-2.9c-.2 0-.2-.2-.2-.2h-.3l-5.8 3.9c-.2 0-.2.2-.3.3v11.6c0 .3-.2.5-.2.6s-.2.3-.3.3l-2.9 2.6.5.5 2.7-2.6c.2 0 .3-.2.5-.2s.5.2.6.3l2.4 2.3h.2l.2-.2 3.1-2.9.2-.2-.3-.3h-.2l-.5.5c-.2.2-.2.3-.5.3-.2 0-.3-.2-.5-.2l-.6-.6s-.2-.2-.2-.3V11.8l3.2 2.7c.2 0 .3.2.3.5.2.2.2.3.2.5v8.2c0 1.3.3 2.1 1.1 3.2.3.6.8.8 1.1 1.1.3.2.6.5 1 .8.6.8.6 1.1.5 1.6v.8l1.6-1.6c.8-.8 1.1-1.5 1-2.4-.2-1-.5-1.3-1.1-1.8-.5-.5-1-1-1.1-1.6 0-.2-.2-.3-.2-.5v-11l.2-.3 2.6-2.7.2-.2h-.5z"/><path class="st0" d="M267.8 29.9c-2.6.2-4.7 1.3-6 3.2 1.3-.6 2.7-1 3.9-1h.5c1.6.2 2.3.6 3.2 1.3.2.2.5.3.6.5l.6.5s.2 0 .2.2h.2l2.6-2.6-.5-.3c-1.8-1.5-3.2-2-5.3-1.8zm37.8-27.3c-.5 0-1 0-1.5-.2-1.1-.2-2.1-.8-2.7-1.3-.3-.3-.6-.5-.8-.5-.2-.2-.3-.2-.5-.2s-.3.2-.5.3l-4.2 4 .5.5 1.3-1.1c.2-.2.2-.3.5-.3s.5.2.5.3l.5.5c.3.3.5.5.8.6.8.5 1.5.6 2.3.6h.3v2.7l-.2.2c-.8.5-1.3.6-2.3.8-1.1.2-1.9 0-2.9-.5h-.2l-3.7-5.7C291.3 1 289.9.1 288.1.2c-1.6.2-2.7.6-3.2 1.9-.3.5-.5 1.6-.2 2.6.5-1 1.5-1.8 2.3-1.8 2.4 0 2.9 3.4 2.9 3.6v16.8h-.3c-1 0-1.6.3-2.4.8-1.1.6-1.8 1.3-2.3 2.3-.6 1.5-.6 3.7.2 4.8 1.3 2.1 3.1 2.6 4.5 2.6h1c-1.3-.2-2.6-1-2.9-1.5-.6-1-.8-2.1-.5-3.1.3-1 1.3-1.6 2.4-1.9 1.3-.2 2.4.2 3.9 1.3l3.9-3.9-.3-.3h-.2l-1 .6c-.2.2-.3.3-.5.3s-.3-.2-.5-.3c-.3-.2-.5-.3-.6-.5-.2-.2-.3-.3-.6-.5-.6-.5-1.1-.6-1.9-.8h-.3V20l.2-.2c.8-.5 1.6-.8 2.7-1 1.1-.2 2.1 0 3.4.5h.2l5.8 9.1V5.8h.3c1.3 0 2.1-.3 3.1-1.3 1-.8 1.6-1.8 1.8-2.9-1.5.8-2.3 1-3.4 1zM291.2 10l2.6 4-.2.2c-.2.3-.5.5-1 .5h-.3c-.3 0-.6-.2-1-.3l-.2-.2.1-4.2zm5 8.9c-1-.3-1.6-.3-2.4-.2-.8.2-1.3.3-1.9.6l-.5.3v-5.2l.5.3c.3.2.8.3 1.1.2.3 0 .6-.2 1-.5l.3-.3 3.1 4.8h-1.2zm5.8-1.4l-2.3-3.1.8.2h.5c.2 0 .3 0 .3-.2l.6-.3v3.4zm0-4.2c-.3.5-.6.6-1.1.6h-.2c-.5 0-1-.2-1.3-.6l-2.6-4 1 .3c.6.3 1.1.3 1.9.3.6 0 1.1-.2 1.8-.6l.5-.3v4.3z"/><path class="st0" d="M285.7 17.3c.3-.2.8-.3 1.1-.3.6-.2 1-.2 1.6 0v-2.9c-.5 0-.8.2-1.3.5-.6.4-1.4 1.6-1.4 2.7zm31.5 6l-.3-.2h-.2l-2.4 2.6c-.2.2-.3.3-.6.3-.2 0-.5-.2-.5-.3l-.2-.2-.2-.2-.2-.2-.2-.2c-.2-.2-.3-.5-.3-.8v-3.4c0-.2.2-.3.3-.5l.2-.2 6-6.3c.2-.2.2-.3.2-.5s-.2-.3-.3-.5l-4.2-4.2-.2-.2h-.3l-6.9 4.2c.2.2.3.3.5.3.2.2.5.6.5 1v10.5c0 .3-.2.5-.2.6 0 .2-.2.3-.3.3l-2.9 2.6.5.5h.2l2.7-2.6c.2 0 .3-.2.5-.2s.5.2.6.2l2.4 2.3h.2s.2 0 .2.2v-.3l5.4-4.6c-.1.1-.1.1 0 0 0 .1 0 0 0 0zm-4.8-10.2c0-.3.2-.5.3-.6h.2c.2 0 .3.2.5.3l2.3 2.3c.2.2.3.3.3.6 0 .2 0 .5-.2.6l-2.3 2.1c-.2.2-.3.2-.5.2h-.2c-.3-.2-.5-.3-.5-.6l.1-4.9z"/><path class="st0" d="M341.5 12.3l2.7-3.1-.5-.5-2.7 2.7c-.2.2-.5.2-.6.2-.3 0-.5-.2-.5-.3l-2.7-2.7-2.9 2.9.2.2.2-.2h.3c.2 0 .3.2.5.3l1 1.1c0 .2.2.3.2.5v12c0 .2 0 .5-.3.6-.2.2-.5.2-.6 0l-2.1-1.6c-.2 0-.2-.2-.3-.3 0-.2-.2-.2-.2-.3v-12l-3.4-3.2-2.9 3.1.2.2.2-.2h.3c.3 0 .5.2.5.3l.8 1c.2.2.2.3.2.5v9.9c0 .2 0 .3-.2.5s-.3.3-.5.3l-1.5 1.3h-.2c-.3 0-.5-.2-.6-.3-.2-.2-.3-.3-.3-.6v-16c0-.8-.5-1-1.5-1.5-.5-.2-.8-.3-1.3-.6-1.6-1.1-1.9-2.3-1.9-2.7 0-.2 0-.5-.2-.8 0-.5-.2-1.1-.2-1.3 0 .2 0 .2-.2.3 0 .3-.3.6-.6 1.1l-.2.2c-.5.6-.8 1.1-.8 1.9 0 .6.5 1.1 1 1.6l.8.8c.3.5.5 1 .5 1.5v15.7c0 .2 0 .3-.2.5v.2c0 .2-.2.2-.3.3l-3.1 2.7.5.5 2.7-2.6c.2 0 .3-.2.5-.2s.5 0 .6.3l2.4 2.4.2-.2 3.2-3.1c.2 0 .3-.2.5-.2s.5.2.5.2h.2l3.4 3.2s.2.2.3.2h.3l7.3-3.7V13.9c0-.3.2-.5.5-.6l.3-.3c.3-.6.5-.6.5-.7zm14.5 4.8h-5.2L356 10c1.1-1 1-3.7 1-4 0-.3-.5-1.3-1.1-1.6-.2 0-.6-.2-1-.2h-.3s.2 0 .2.2l.3.2c.8.6 1.6 1.5 1.6 2.7 0 1.3-.6 2.3-1.8 2.6-.2 0-.3.2-.6.2-.8 0-1.5-.5-1.9-.8-.2-.2-.2-.2-.3-.2l-.3-.3h-.2l-7.4 4-.2.2v5.5h5l-5 7.3c-1 .6-1.8 2.6-1.9 3.7 0 1.3 0 2.6 1 3.2.3.2.8.3 1.3.3h.2c-.2 0-.3-.2-.3-.2-1-1-1.8-1.8-1.8-3.1 0-2.3 2.3-3.4 4.4-3.6 2.1-.2 3.9 1.5 4.8 2.4.2.2.2.2.2.3l4-3.9v-7.8c.3.2.3 0 .1 0zm-7.1 0c-.3 0-.5-.2-.6-.3s-.2-.3-.2-.5v-5l.6.5c.6.5 1.3.8 1.9.8h.8c.5 0 .8 0 1.3-.2l1-.3-3.6 4.8c.1.1-1.2.2-1.2.2zm2.8 7.1c0 .3-.2.5-.3.6h-.2c-.2 0-.3 0-.3-.2-.6-.3-1.1-.5-1.8-.5-1 0-1.6 0-2.6.5l-1.1.5 4.4-6.5h1.9v5.6z"/></svg>