<svg id="Layer_1" xmlns="http://www.w3.org/2000/svg" viewBox="0 0 546.6 426.2"><style>.st0{fill:none;stroke:#2b2722;stroke-width:16;stroke-linecap:round;stroke-linejoin:round;stroke-miterlimit:10}</style><path class="st0" d="M175.6 13.2s-38.1 116-77.7 199.9-71.8 137.8-80.8 192.8c0 0 97.6-92.5 158.6-129.8"/><path class="st0" d="M221.3 176.7s-7.5-1.2-14.2 7.2c-6.7 8.4-51.1 62.9-20 68.7 18.7 3.5 40.1-48.1 40.1-48.1s-4.1 35.4 3.2 49.8m23.6-67.9s5.6 59.4 43 19.3 39.1-83.3 39.1-83.3-54.4 106-82 283.4m106-267.1s-8.2 42.7 1.9 29.3c10-13.4 47.7-69.5 47.7-69.5s-15.5 97.9-7.7 140.6m38.7-80.3s47.8 12.1 46.5-19.5c-1.3-31.6-80.9 12.1-46.5 55.3 29 36.3 87.9 30.3 87.9 30.3"/></svg>