<?xml version="1.0" encoding="utf-8"?>
<!-- Generator: Adobe Illustrator 23.0.1, SVG Export Plug-In . SVG Version: 6.00 Build 0)  -->
<svg version="1.1" id="Layer_1" xmlns="http://www.w3.org/2000/svg" xmlns:xlink="http://www.w3.org/1999/xlink" x="0px" y="0px"
	 viewBox="0 0 546.6 426.2" style="enable-background:new 0 0 546.6 426.2;" xml:space="preserve">
<style type="text/css">
	.st0{fill:#2B2722;}
</style>
<path class="st0" d="M225.6,188.2c1.3-3.5,2.5-6.4,3.3-9.3c0.4-1.4,0.2-3.1-0.1-4.6c-1.4-5.5-5.7-7.8-10.6-9.6
	c-4.4-1.7-7.1,0.8-10,3.2c-8.9,7.4-16.5,16.2-22.9,25.8c-6.9,10.1-11.7,21.4-15.5,33c-1.3,3.8-2,8-1.9,12c0.1,10.4,3.6,19,14.1,23.3
	c2.3,0.9,4.4,2.2,6,2.9c13.5-1.4,20.1-11.7,28.8-20c1.4,3,2.8,5.4,3.7,7.9c2.3,6.5,6.5,10.5,13.6,11.7c1.4-0.9,3.6-1.6,4.3-3
	c0.8-1.8,0.4-4.2,0.4-6.3c0-0.3-0.2-0.6-0.3-0.9c-2.6-5-2.2-10.3-1.9-15.6c0.6-8.7,0.6-17.4,1.6-26.2c1.2-10.1-2.2-13.5-10.6-15.9
	c-4.1-1.2-6.4-0.4-8.2,3.7c-2.5,5.7-4.8,11.5-7.2,17.2c-0.6,1.4-1.1,3-2.1,4.1c-6.3,6.9-12.7,13.7-19.1,20.5
	c-0.6,0.7-1.9,0.7-3.6,1.3c0.2-2.7,0.3-4.6,0.5-6.4c0.1-1.2,0.5-2.4,0.8-3.6c4.8-17,14.4-31.1,26.6-43.5c2-2,4.1-2.6,6.8-1.7
	C222.9,188.4,223.9,188.2,225.6,188.2z"/>
<path class="st0" d="M28.1,389.1c3.1,0.5,4.7-1.1,5.9-2.9c6.3-9,14.3-16.4,22-24.2c6.1-6.2,11.9-12.8,18-19
	c6.6-6.6,13.5-13,20.3-19.4c1.6-1.5,3.2-3,4.8-4.4c2.6-2.2,5.2-4.3,7.9-6.4c1.5-1.1,3.9-3.3,5.1-4.5c4.8-4,7.2-5.8,11.4-8.9
	c9.5-7,19.1-14,28.7-20.9c5.9-4.1,12.1-7.8,18.1-11.7c2.2-1.4,4.7-1.6,7.2-0.8c1.5,0.5,2.8,1.4,4.3,1.8c3,1,4.8,3,4.9,6.1
	c0.1,3.5-0.4,6.9-4.1,8.8c-5.3,2.8-10.6,5.4-15.7,8.4c-5.1,3-9.9,6.5-14.9,9.7c-0.8,0.5-1.5,1.2-2.3,1.6c-17.4,8.9-31.4,22.4-46,35
	c-2.4,2.1-21.7,22.4-30.1,30.3c-7.8,7.2-14.7,15.1-21.4,23.3c-7.2,8.7-14.5,17.3-21.9,25.7c-2.2,2.6-5,4.7-7.8,6.8
	c-4.9,3.5-9.9,3.1-14.9,0c-1.1-0.7-2.1-1.4-3-2.2c-4.1-3.6-6.4-4.7-3.7-12c2.7-7.3,4.6-14.9,6.9-22.4c1.8-6,3.4-12,7.1-17.3
	c0.9-1.2,1.3-2.8,1.7-4.3c1.1-4.6,2.2-9.1,5.6-12.8c1-1.1,1.6-2.7,2.1-4.2c4-12.9,10.3-24.8,15.4-37.2c5.9-7.1,7.1-16.5,11.6-24.3
	c3.8-6.8,7.3-13.7,10.2-21c3.1-7.8,7.5-15.1,11.2-22.7c1.4-2.8,2.5-5.7,3.8-8.5c0.2-0.6,0.3-1.3,0.7-1.8c5.7-7.6,8.5-16.6,12.8-24.9
	c4-7.7,7.9-15.4,10.9-23.6c0.8-2,13.3-27.5,16.5-36.6c0.8-2.4,10.1-29.7,13.9-38.7c3.7-8.9,6.5-18.2,9.8-27.3
	c2.6-7.1,4.3-14.7,8.2-20.9c4.6-7.4,5.3-15.9,9.1-23.4c3.7-7.3,5.3-15.3,7.3-23.2c0.8-3,0.9-6.1,1.4-9.2c0.6-3.6,2.9-5.4,6.6-5.3
	c6.3,0.2,12.9,6.1,13.4,12.2c0.1,1.5-0.4,3.1-0.9,4.5c-4.9,13.9-9.3,27.9-14.8,41.5c-12.6,31-24.1,62.4-36.2,93.7
	c-5.1,13.1-11.1,25.9-17,38.7c-7.7,16.8-15.6,33.5-23.6,50.1c-5.2,10.7-10.9,21.1-16.1,31.8c-8.5,17.4-16.7,35-24.9,52.5
	c-5,10.8-10,21.6-14.6,32.5c-3.5,8.3-6.7,16.9-9.8,25.3C28.5,384.8,28.4,387,28.1,389.1z"/>
<path class="st0" d="M252.5,421.6c-2-1-3.4-4.5-3.3-5.9c0.6-8.1,1.4-16.2,2-24.3c0.2-2.5,2.5-24,2.9-28.6c0.5-6.2,1.2-12.4,2.1-18.6
	c0.2-1.5,2.5-9.5,2.8-12.4c0.5-4,0.9-7.8,1.5-11.7c0.6-4,1.9-8.3,3.1-12.1c3.3-10.5,4.9-22.4,6.6-33.2c0.2-1.5,3.7-12.2,5-16.7
	c2.2-8.1,4.8-16.1,7.2-24.2c0.8-2.6,1.9-5.2,0.3-8.2c-3.6,2.2-6.8,5.6-10.2,6.1c-9.1-3.8-14.9-9.9-19-18.1
	c-4.6-9.2-6.5-18.9-6.4-29.1c0.1-6,2.6-7.7,8.5-6c8,2.3,10.5,5.5,10.8,14.2c0.1,4.7-0.1,9.4,3,14.1c1.1,1.5,3.4,0.6,4.4-0.4
	c2.3-2.1,5.2-3.9,7.5-6c2.7-2.4,4-4.3,7.8-7.5c2.5-1.6,4.9-1.8,8.2-3.2c1.9-5,5.2-11.2,6.5-17.3c1-4.9,4.1-10.4,5.3-14.5
	c3-5.4,3.4-10.6,5.9-16.4c4.3-10.1,8.6-20.1,13.2-30.1c2.3-5.1,6.1-6,10.5-3c1.5,1,2.9,2.3,4.3,3.7c4.3,4.1,4.9,7.1,2.2,12.6
	c-3,6.2-6.7,12-9.5,18.3c-5.5,12.6-10.5,25.4-15.7,38.2c-1.7,4-3.8,7.9-5.2,12c-3.9,11.2-7.4,22.6-11.1,33.8
	c-1.6,5.1-3.3,10.1-5,15.1c-4.5,13.3-9.6,25-12.2,38.8c-1.5,8.3-2.8,16.6-4.8,24.9c-1.4,6.1-4,12.4-5.3,18.5
	c-1.3,6.4-2.7,13.2-3.9,19.7c-2,10.5-3.9,20.5-5.6,31c-1.5,9-2.8,14-4.5,23.2c-1.1,3.6-2.4,10.5-2.7,12.6
	C259.1,415.5,256.3,421.6,252.5,421.6z"/>
<path class="st0" d="M351.4,145.7c3.1,0,5.7,5.7,9.3,5.7c1.3-1.4,20.3-27.2,21.9-29c3.3-3.8,21.2-35.9,24.1-35.9
	c12.3,1.8,17.1,7,15.9,18.2c-1.6,14.3-3.6,28.5-6.2,42.7c-5.1,27.5-6.9,55.2-6.2,83.1c0,0.3,0,0.6,0.1,0.9c0.4,2.8,1,5.8-2.1,7.5
	c-3.2,1.7-8.6,0.3-11-2.8c-2.8-3.6-4-7.7-4-12.3c0-8.8,0-17.5-0.1-26.3c-0.1-15.4,2.5-21.9,3.4-37.2c0.2-2.8,1.6-14.2,2.6-16.8
	c1.4-4,1.5-7.9,1.1-11.9c-2.1-0.9-2.8,0.7-3.6,1.9c-7.5,11.9-15.1,23.6-22.5,35.6c-2.5,4-4.6,8.1-6.5,12.4
	c-4.1,9.3-10.8,10.4-17.5,1.5c-3.6-4.8-5.2-9.7-3.2-15.7c1.3-3.8,1.6-7.9,2.6-11.9C349.7,154.1,350.7,147.1,351.4,145.7z"/>
<path class="st0" d="M539.2,219.1c-12.8-0.5-25.4-3.2-38.1-4.2c-11.3-0.9-22-4.4-32.8-7.6c-3.9-1.1-7.6-3-11.1-5
	c-10.6-6.1-14.7-18.7-9.6-30.1c1,0,2.3-0.1,3.5,0c6,0.9,11.9-0.1,17.7-1.1c8.1-1.5,15.6-4.5,22.1-9.6c5.3-4.1,7.3-9.6,7.7-16.3
	c0.6-9.6-10.8-23.7-21.8-22.7c-3.4,0.3-6.9,0.3-10.2,1c-11.2,2.5-19.5,9.3-26.2,18.5c-2.7,3.8-5.9,7.2-9.7,12
	c-0.2,1.8-0.5,4.3-0.9,6.8c-0.6,4.6-1.5,9.2-1.9,13.9c-1,11.6,4,21.5,10.9,30.1c6.9,8.6,15.7,15.2,26.9,17.9c4.2,1,8.5,2.2,12.6,3.6
	c9,3.1,18.5,3.1,27.8,3.5c6.1,0.3,12.2,1.9,18.5,0.8c5.2-0.9,10.5-0.6,15.8-0.9c2.1-0.1,4.2-0.7,6.2-1
	C546.2,220.3,545.7,219.3,539.2,219.1z M469.3,142.1c3.1-2.1,6.6-3.4,11.1-2.4c-0.4,1.3-0.5,2.6-1.1,3.4c-5.1,6.1-11.7,8.6-20.3,9
	C461.3,146.7,465.5,144.6,469.3,142.1z"/>
<path class="st0" d="M225.6,188.2c-1.8,0-2.8,0.2-3.6,0c-2.7-0.9-4.8-0.3-6.8,1.7c-12.2,12.5-21.8,26.6-26.6,43.5
	c-0.3,1.2-0.6,2.4-0.8,3.6c-0.2,1.8-0.3,3.7-0.5,6.4c1.7-0.6,3-0.6,3.6-1.3c6.5-6.8,12.9-13.6,19.1-20.5c1-1.1,1.5-2.7,2.1-4.1
	c2.4-5.7,4.6-11.6,7.2-17.2c1.8-4.1,4-4.9,8.2-3.7c8.4,2.4,11.8,5.8,10.6,15.9c-1.1,8.7-1.1,17.5-1.6,26.2
	c-0.3,5.3-0.7,10.6,1.9,15.6c0.1,0.3,0.3,0.6,0.3,0.9c-0.1,2.1,0.4,4.5-0.4,6.3c-0.6,1.4-2.9,2.1-4.3,3c-7.1-1.2-11.4-5.2-13.6-11.7
	c-0.9-2.5-2.2-4.9-3.7-7.9c-8.6,8.3-15.3,18.6-28.8,20c-1.6-0.8-3.7-2-6-2.9c-10.4-4.3-13.9-12.9-14.1-23.3c-0.1-4,0.7-8.2,1.9-12
	c3.9-11.6,8.7-22.9,15.5-33c6.5-9.5,14-18.3,22.9-25.8c2.9-2.4,5.6-4.9,10-3.2c4.9,1.9,9.2,4.1,10.6,9.6c0.4,1.4,0.5,3.1,0.1,4.6
	C228.1,181.9,226.9,184.7,225.6,188.2z"/>
</svg>
