<?xml version="1.0" encoding="utf-8"?>
<!-- Generator: Adobe Illustrator 23.0.1, SVG Export Plug-In . SVG Version: 6.00 Build 0)  -->
<svg version="1.1" id="Layer_1" xmlns="http://www.w3.org/2000/svg" xmlns:xlink="http://www.w3.org/1999/xlink" x="0px" y="0px"
	 viewBox="0 0 219.81 93.76" style="enable-background:new 0 0 219.81 93.76;" xml:space="preserve">
<style type="text/css">
	.st0{fill:#FFFFFF;}
</style>
<path class="st0" d="M28.01,0.05c1.33-0.31,1.06,0.91,0,3.33S11.05,36.24,4.54,68.18c0,0,19.23-13.02,34.52-12.42
	c0,0,2.57,0.76,0,1.51c-2.57,0.76-22.86,5.75-34.52,16.5L0,74.69c0,0,3.94-18.32,9.99-34.98S25.44,0.65,28.01,0.05z"/>
<path class="st0" d="M65.86,55.98c-0.61,2.48-3.03,4.64-3.03,4.64c-1.06-4.54,0.76-16.2,0.91-18.78c0.15-2.57-2.42-3.03-3.03-3.03
	c-0.61,0-3.48-4.69-3.79-5.15c-0.3-0.45-0.12-4.03-2.12-3.03c-3.63,1.82-8.63,7.72-8.63,7.72c-2.88,2.73-6.96,12.11-7.42,15.6
	c-0.45,3.48,2.73,4.54,4.55,5.15s3.93,1.67,6.5-1.06s9.39-8.93,9.39-8.93s0,9.69,0,11.66c0,1.97,2.88,5.75,5.75,1.51
	C67.83,58.04,65.86,55.98,65.86,55.98z M48.45,54.4c-5.45,4.09-6.21-0.3-3.94-7.42c2.27-7.12,8.18-10.14,9.39-10.6
	c0,0,2.57,4.69,3.48,5.45c0.91,0.76,1.06,3.33,1.06,3.33S53.9,50.32,48.45,54.4z"/>
<path class="st0" d="M66.4,57.15l3.67-12.13c0,0,1.49,9.75,8.12,10.02c6.63,0.27,12.18-2.84,12.18-2.84s-3.11,7.45-5.69,18.14
	c-2.57,10.7-4.06,20.31-3.66,23.42l3.79-0.54c0,0-0.81-2.03-0.81-2.84c0-0.81,2.57-9.75,3.25-12.45c0.68-2.71,2.98-15.3,4.6-19.36
	s4.6-13.54,4.6-13.54s2.03-1.22,3.93-3.93c1.9-2.71,3.25-9.51,2.98-10.64s-2.03-2.08-2.03-2.08s-3.79,2.57-4.87,6.36
	c-1.08,3.79-3.66,11.78-12.86,14.62s-10.83-9.34-10.83-9.34s-0.41-1.35-2.57-1.9l-0.95,3.11l-3.4,14.74L66.4,57.15z"/>
<path class="st0" d="M104.06,52.88c0,0-0.68,2.81,0,3.1c0.68,0.29,2.84-0.93,2.84-0.93s13.27-17.6,14.76-20.71
	c0,0,0,16.38,5.69,16.52c5.69,0.14,9.61-5.67,9.61-5.67s1.9,4.59,11.1,4.72c9.21,0.14,18.01-1.49,33.57-3.38
	c15.57-1.9,38.18-7.72,38.18-7.72l-5.96-0.81c0,0-35.88,6.9-57.94,7.99s-12.73-9.07-12.73-9.07s2.57-2.71,0.68-3.79
	s-3.11,0.68-3.93,1.9c-0.81,1.22-7.31,11.69-11.78,12.05l-1.9-19.9l-2.84-2.17L104.06,52.88z"/>
</svg>
