<?xml version="1.0" encoding="utf-8"?>
<!-- Generator: Adobe Illustrator 23.0.1, SVG Export Plug-In . SVG Version: 6.00 Build 0)  -->
<svg version="1.1" id="Layer_1" xmlns="http://www.w3.org/2000/svg" xmlns:xlink="http://www.w3.org/1999/xlink" x="0px" y="0px"
	 viewBox="0 0 357 34.7" style="enable-background:new 0 0 357 34.7;" xml:space="preserve">
<style type="text/css">
	.st0{fill:#333333;}
</style>
<path class="st0" d="M8.6,22.3c0.6-0.2,1.3-0.3,1.8-0.6c1.6-1,2.4-2.4,2.4-4.5V7.4l-6.3,5.7l0.5,0.6L9.2,12v8.6
	C9.4,21.2,8.9,21.8,8.6,22.3L8.6,22.3z"/>
<path class="st0" d="M17.8,23.8c0,0-0.8,0.8-1.1,0.8h-0.2c-0.2,0-0.3-0.2-0.3-0.3V4.8h0.3c0.3-0.2,0.5-0.3,0.6-0.6l0.3-0.3
	c0.3-0.5,1.1-2.3-0.2-3.1c-0.3-0.2-1-0.3-1,0c0,0,0.2,0.2,0.3,0.2c0.3,0.2,0.8,0.5,0.8,1.1s-0.6,1.1-1.6,1.1h-0.3
	c-0.6,0-1.9-0.5-3.4-1c-1.1-0.5-2.4-1-3.2-1.1C7.9,1,7.1,0.8,6.3,0.8c-1,0-1.9,0.2-2.7,0.8C2.4,2.3,1.8,3.1,1.3,4
	C0.8,4.8,0.6,6.1,1,7.4c0.5-1.1,1.1-2.1,2.4-2.6c1-0.3,1.8-0.5,2.7-0.5c1,0,1.9,0.3,3.1,0.5c1.1,0.3,2.3,0.6,3.9,0.8h1
	c0.8,0,1,0,1.1,0.2c0.3,0.2,0.3,0.5,0.3,0.6v19.4h-0.3C14.4,26,13.9,26,13.4,26c-0.8,0-1.5-0.2-2.3-0.3c-3.1-1.1-4.4-3.1-5.7-5
	S4,17.1,4.2,15c0.2-2.3,0.8-3.6,1.6-5.3c0.8-1.5,1.5-2.3,2.4-3.2c-0.5,0.2-1,0.3-1.6,0.6c-2.1,1.1-3.7,2.6-5,5
	C0.5,14.2,0,15.8,0,18.3c0,1.5,0.3,3.4,1,4.7c0.6,1.5,2.3,3.6,4.5,4.7c2.3,1.1,3.7,1.3,5.8,1c1.9-0.3,2.9-0.8,4.4-1.8
	c1-0.6,1.6-1.3,2.3-2.1C17.6,24.2,17.8,23.9,17.8,23.8L17.8,23.8z"/>
<path class="st0" d="M33,12.4l-3.2-3.7l-0.2-0.2h-0.2l-3.6,3.6c0,0-0.3,0.3-0.5,0.3c-0.3,0-0.5-0.3-0.5-0.5V0.5L22,1.8
	c-0.2,0-0.2,0.2-0.3,0.2c-0.3,0-0.5-0.2-0.6-0.3L20.5,1v23.6c0,0.3-0.2,0.5-0.2,0.6L20,25.5l-2.9,2.6l0.5,0.5l2.7-2.6
	c0.2,0,0.3-0.2,0.5-0.2c0.2,0,0.5,0.2,0.6,0.3l2.4,2.3h0.2l0.2-0.2l3.2-3.1l-0.3-0.3l-0.6,0.5c0,0-0.2,0.3-0.5,0.3
	c-0.2,0-0.5-0.2-0.5-0.3l-0.2-0.2L25.2,25c0,0-0.2-0.2-0.2-0.3c0,0-0.2-0.2-0.2-0.3V13.6l1-1.1c0.2-0.2,0.3-0.3,0.5-0.3
	s0.3,0.2,0.5,0.3l1.6,1.9l0.2,0.2v14.7c0,0.5-0.3,2.1-1.3,3.1c-0.8,0.8-1.5,1.5-2.3,1.8c0.3,0,0.6,0.2,1,0.2c1.6,0.2,2.6-0.2,3.7-1
	c1-0.8,1.1-1,1.8-1.9c0.8-1.1,1.3-1.9,1.3-3.2v-15L33,12.4C33.1,12.6,33.1,12.6,33,12.4L33,12.4z M44.6,8.6
	C44.4,8.6,44.4,8.6,44.6,8.6c-0.2-0.2-0.3-0.2-0.5-0.2l-6.9,4.2c0.2,0.2,0.3,0.3,0.5,0.3c0.2,0.2,0.5,0.6,0.5,1v10.5
	c0,0.3-0.2,0.5-0.2,0.6s-0.2,0.3-0.3,0.3L34.7,28l0.5,0.5h0.2l2.7-2.6c0.2,0,0.3-0.2,0.5-0.2c0.2,0,0.5,0.2,0.6,0.2l2.4,2.3h0.2
	c0,0,0.2,0,0.2,0.2V28l5-5l-0.3-0.2l-2.4,2.6c-0.2,0.2-0.3,0.3-0.5,0.3s-0.5-0.2-0.5-0.3l-0.2-0.2L43,25l-0.2-0.2l-0.2-0.2
	c-0.2-0.2-0.3-0.5-0.3-0.8v-3.4c0-0.2,0.2-0.3,0.3-0.5l0.2-0.2l6-6.3c0.2-0.2,0.2-0.3,0.2-0.5c0-0.2-0.2-0.3-0.3-0.5L44.6,8.6
	L44.6,8.6z M45.7,16.3l-2.3,2.1c-0.2,0.2-0.3,0.2-0.5,0.2h-0.2c-0.3-0.2-0.5-0.3-0.5-0.6v-5c0-0.3,0.2-0.5,0.3-0.6h0.2
	c0.2,0,0.3,0.2,0.5,0.3l2.3,2.3c0.2,0.2,0.3,0.3,0.3,0.6S45.9,16.2,45.7,16.3L45.7,16.3z M57.5,15V12c-0.5,0-0.8,0.2-1.3,0.5
	c-0.8,0.5-1.5,1.6-1.5,2.9c0.3-0.2,0.6-0.3,1.1-0.3C56.6,14.9,57,14.9,57.5,15z M62.9,18.4V8.9c0-0.6,0-1.1,0.3-1.6l0.5-1
	c-0.3,0-0.6-0.2-1-0.2c-1,0-1.8,0.2-2.3,0.5c-1.1,0.8-1.6,1.8-1.6,2.9v9.5c0,0.8-0.2,1.5-0.5,2.1c-0.2,0.3-0.5,0.6-0.8,1
	c0.3,0,0.6,0.2,0.8,0.2c0.8,0,1.6-0.3,2.4-0.8C61.9,21,62.9,20,62.9,18.4z"/>
<path class="st0" d="M75.1,1.5c-1.1-1-2.4-1.5-4-1.5c-0.8,0-1.6,0.2-2.7,0.3c-1,0.3-1.8,0.5-2.4,0.8c-1.3,0.5-2.6,0.8-4.4,0.8
	c-2.4-0.2-4-0.3-6-1c1.3,1.5,2.6,2.3,4.7,3.1C61.9,4.7,63,4.8,65,4.8h0.3v17.9H64c-0.8,0-1.5,0-2.3,0.3c-1.6,0.3-2.4,0.8-3.9,1.8
	c-0.6,0.5-2.9,2.3-2.9,4.7c0,1.6,0.8,2.9,2.4,4c0.8,0.5,1.8,0.6,2.7,0.3c-1.1-0.2-2.1-0.6-2.7-1.5c-0.6-0.8-1-1.8-0.6-2.9
	c0.2-1.5,1.5-3.2,5.5-3.2c0.6,0,1.3,0,1.9,0.2c1.8,0.2,4.5,1.1,6.8,4.2l0.2,0.2c0,0,0.2,0,0.2,0.2l5.8-6.1V5.5
	C77.2,4,76.4,2.6,75.1,1.5L75.1,1.5z M72.4,25.7l-0.6-0.5c-0.8-0.6-1.5-1.1-2.6-1.6c-0.8-0.3-1.5-0.6-2.4-0.8h-0.3v-5.5l0.2-0.2
	c0.8-0.6,1.6-1,2.6-1c1.1,0,2.1,0.3,2.9,1.1l0.2,0.2L72.4,25.7L72.4,25.7z M72.4,16.5l-0.5-0.3c-1-0.5-1.6-0.6-2.6-0.6
	c-0.8,0-1.5,0.2-2.3,0.5l-0.5,0.2v-4.8l0.5,0.3c0.8,0.3,1.3,0.5,2.3,0.5c1,0,1.6-0.2,2.6-0.6l0.5-0.3C72.4,11.2,72.4,16.5,72.4,16.5
	z M72.4,10.5c-1,0.8-1.8,1.1-2.9,1.1h-0.2c-1,0-1.8-0.3-2.6-1.1l-0.2-0.2v-6l0.2-0.2c0.8-0.6,1.6-0.8,2.6-0.8h0.2
	c1.5,0,2.9,0.8,2.9,2.4C72.4,5.8,72.4,10.5,72.4,10.5z M94.4,25l-0.6,0.6c-0.2,0.2-0.2,0.2-0.5,0.2s-0.5-0.2-0.5-0.2l-0.2-0.3v-0.2
	c0,0-0.2-0.2-0.2-0.3c-0.2-0.2-0.2-0.3-0.2-0.5V12.8c0-0.2,0.2-0.2,0.2-0.3l0.2-0.2l2.9-2.9L95,9.1l-2.6,2.4c0,0.2-0.2,0.3-0.5,0.3
	h-0.2c-0.3,0-0.5-0.3-0.6-0.3l-2.7-2.9l-0.2-0.2v0.3c-0.2,0.3-0.5,1.3-1.1,1.8c-1,0.8-1.8,1.1-2.9,1.1h-0.6L84,11
	c0.2-0.3,0.3-0.5,0.3-0.8c0.2-0.6-0.2-1.1-0.6-1.5c-0.2-0.2-0.5-0.3-0.8-0.3c-0.5,0-1,0.2-1.3,0.6c-0.6,0.8-0.3,2.3,0,3.2
	c0.6,1.6,1.9,3.2,2.6,3.7l0.6,0.5l-0.6,0.2c-0.8,0.3-1.3,0.5-2.1,1.1c-1.3,1.1-1.9,2.3-2.3,4.2c-0.2,1.3-0.2,2.1,0.3,3.2
	c0.3,1,0.8,1.6,1.8,2.3c0.6,0.5,1.3,0.8,2.3,1h0.3l2.9-2.7c0.2-0.2,0.3-0.3,0.5-0.3c0.2,0,0.5,0.2,0.6,0.2h0.2l3.1,2.7l0.2,0.2
	c0,0,0.2,0,0.2-0.2l3.1-3.1L94.4,25C94.5,25,94.4,25,94.4,25z M87.9,23.9c0,1.1-1.3,1.5-2.4,1.5c-1.6,0-2.4-1.8-2.6-2.3
	c-0.5-1.3-0.3-2.6,0.5-3.9c1-1.5,2.7-2.3,3.9-1.8c0.3,0.2,0.6,0.5,0.6,1L87.9,23.9L87.9,23.9z M87.9,16c0,0.2,0,0.3-0.2,0.6
	c-0.2,0.2-0.5,0.2-0.6,0.2h-0.8c-2.1-0.2-4.2-3.4-4.2-4.4v-0.6l0.5,0.3c0.8,0.5,1.6,0.6,2.6,0.6c0.8,0,1.8-0.3,1.9-0.3
	c0.2-0.2,0.6-0.2,0.6,0.8L87.9,16z"/>
<path class="st0" d="M104.4,25C104.4,25,104.2,25,104.4,25C104.2,25,104.2,25,104.4,25l-0.6,0.5c0,0.2-0.2,0.3-0.5,0.3
	c-0.2,0-0.3-0.2-0.5-0.3l-0.2-0.2c0,0,0-0.2-0.2-0.2l-0.2-0.2v-0.2c0,0-0.2-0.2-0.2-0.3V0.5l-2.9,1.3c-0.2,0-0.2,0.2-0.3,0.2
	c-0.3,0-0.5-0.2-0.6-0.3L97.8,1v23.6c0,0.3-0.2,0.5-0.2,0.6l-0.2,0.2l-0.2,0.2l-2.9,2.6l0.5,0.5l2.7-2.6c0.2-0.2,0.3-0.2,0.5-0.2
	c0.2,0,0.5,0.2,0.6,0.3l2.6,2.4c0,0,0,0.2,0.2,0.2c0,0,0-0.2,0.2-0.2l0.2-0.2l3.1-3.1L104.4,25L104.4,25z"/>
<path class="st0" d="M114.3,25l-0.6,0.5c0,0.2-0.2,0.3-0.5,0.3c-0.2,0-0.3-0.2-0.5-0.3l-0.2-0.2c0,0,0-0.2-0.2-0.2l-0.2-0.2v-0.2
	c0,0-0.2-0.2-0.2-0.3V0.5l-2.9,1.3c-0.2,0-0.2,0.2-0.3,0.2c-0.3,0-0.5-0.2-0.6-0.3L107.6,1v23.6c0,0.3-0.2,0.5-0.2,0.6l-0.2,0.2
	l-0.2,0.2l-2.9,2.6l0.5,0.5l2.7-2.6c0.2-0.2,0.3-0.2,0.5-0.2c0.2,0,0.5,0.2,0.6,0.2l2.6,2.4c0,0,0,0.2,0.2,0.2c0,0,0-0.2,0.2-0.2
	l0.2-0.2l3.1-3.1L114.3,25L114.3,25z M117.5,27.6c0.6,0.5,1.3,0.8,2.3,1l0.2-0.2l2.9-2.7c0.2-0.2,0.3-0.3,0.5-0.3
	c0.2,0,0.5,0.2,0.5,0.2h0.2l3.1,2.7l0.2,0.2l0.2-0.2l3.1-3.1l-0.3-0.3l-0.5,0.5c-0.2,0.2-0.2,0.2-0.5,0.2c-0.2,0-0.3-0.2-0.5-0.2
	l-0.2-0.3v-0.2c0,0-0.2-0.2-0.2-0.3c-0.2-0.2-0.2-0.3-0.2-0.5V12.4c0-0.2,0.2-0.2,0.2-0.3l0.2-0.2l2.9-2.9l-0.5-0.3l-2.6,2.4
	c0,0.2-0.2,0.3-0.5,0.3h-0.2c-0.3,0-0.5-0.3-0.6-0.3l-2.7-2.9l-0.2-0.2v0.3c-0.2,0.3-0.5,1.3-1.1,1.8c-1,0.8-1.8,1.1-2.9,1.1h-0.6
	l0.5-0.6c0.2-0.3,0.3-0.5,0.3-0.8c0.2-0.6-0.2-1.1-0.6-1.5c-0.2-0.2-0.5-0.3-0.8-0.3c-0.5,0-1,0.2-1.3,0.6c-0.6,0.8-0.3,2.3,0,3.2
	c0.6,1.6,1.9,3.2,2.6,3.7l0.6,0.5l-0.6,0.2c-0.8,0.3-1.3,0.5-2.1,1.1c-1.3,1.1-1.9,2.3-2.3,4.2c-0.2,1.3-0.2,2.1,0.3,3.2
	C116,26.3,116.5,27,117.5,27.6z M118,12.4v-0.6l0.5,0.3c0.8,0.5,1.6,0.6,2.6,0.6c0.8,0,1.8-0.3,1.9-0.3c0.2-0.2,0.6-0.2,0.6,0.8v2.9
	c0,0.2,0,0.3-0.2,0.6c-0.2,0.2-0.5,0.2-0.6,0.2H122C120.1,16.6,118,13.4,118,12.4z M119.1,19.2c1-1.5,2.7-2.3,3.9-1.8
	c0.3,0.2,0.6,0.5,0.6,1v5.3c0,1.1-1.3,1.5-2.4,1.5c-1.6,0-2.4-1.8-2.6-2.3C118.1,21.8,118.3,20.4,119.1,19.2L119.1,19.2z M144.8,4.4
	c-0.2,0-0.6-0.2-1-0.2h-0.3c0,0,0.2,0,0.2,0.2l0.3,0.2c0.8,0.6,1.6,1.5,1.6,2.7s-0.6,2.3-1.8,2.6c-0.2,0-0.3,0.2-0.6,0.2
	c-0.8,0-1.5-0.5-1.9-0.8c-0.2-0.2-0.2-0.2-0.3-0.2l-0.3-0.3h-0.2l-7.4,4l-0.2,0.2v5.5h5l-5,7.3c-1,0.6-1.8,2.6-1.9,3.7
	c0,1.3,0,2.6,1,3.2c0.3,0.2,0.8,0.3,1.3,0.3h0.2c-0.2,0-0.3-0.2-0.3-0.2c-1-1-1.8-1.8-1.8-3.1c0-2.3,2.3-3.4,4.4-3.6
	s3.9,1.5,4.8,2.4c0.2,0.2,0.2,0.2,0.2,0.3l4-3.9v-7.9h-5.3l5.2-7.1c1.1-1,1-3.7,1-4C145.9,5.8,145.4,4.7,144.8,4.4L144.8,4.4z
	 M140.8,18.6v5.5c0,0.3-0.2,0.5-0.3,0.6h-0.2c-0.2,0-0.3,0-0.3-0.2c-0.6-0.3-1.1-0.5-1.8-0.5c-1,0-1.6,0-2.6,0.5l-1.1,0.5l4.4-6.5
	L140.8,18.6L140.8,18.6z M139.1,17l-1.3,0.2c-0.3,0-0.5-0.2-0.6-0.3c-0.2-0.2-0.2-0.3-0.2-0.5v-5l0.6,0.5c0.6,0.5,1.3,0.8,1.9,0.8
	h0.8c0.5,0,0.8,0,1.3-0.2l1-0.3C142.7,12.1,139.1,17,139.1,17z M183.7,25l-0.5,0.5c-0.2,0-0.3,0.2-0.5,0.2c-0.2,0-0.3-0.2-0.5-0.2
	l-0.3-0.3c0,0-0.2-0.2-0.2-0.5V4c0.2-0.2,0.2-0.3,0.3-0.3L185,1l-0.5-0.5L182,2.9c-0.2,0-0.3,0.2-0.5,0.2c-0.3,0-0.5-0.2-0.5-0.3
	l-2.6-2.3h-0.2l-3.6,3.7c1.3,0,2.6,0.8,2.6,2.3v4.4l-0.2,0.2c-0.3,0.3-0.6,0.5-1.1,0.5c-0.3,0-0.6-0.2-1-0.3l-0.2-0.2V6.6h-0.8v17.1
	h0.8v-6.6c0.2-0.3,0.6-0.5,1.1-0.5c0.5,0,0.8,0.3,1,0.6v7.3c0,0.2,0,0.5,0.2,0.6c0,0,0.2,0.2,0.2,0.3l3.2,3.1v0.2l0.2-0.2l3.2-3.1
	L183.7,25L183.7,25z M177,16.5l-0.5-0.2c-0.3-0.2-0.5-0.2-0.6-0.2s-0.3,0-0.6,0.2l-0.5,0.2v-5l0.5,0.2c0.5,0.2,0.8,0.2,1.1-0.2
	l0.5-0.3L177,16.5L177,16.5z"/>
<path class="st0" d="M169.4,0.5C169.4,0.5,169.2,0.5,169.4,0.5l-9.2,8.7c-0.3,0.2-0.3,0.5-0.5,0.8v0.2c-0.2,0.5-0.3,1-0.3,1.5v10
	c0,0.5-0.2,1-0.3,1.5v0.2l-0.5,1c1.1-0.2,2.1-0.6,3.1-1.6c0.6-0.8,1.1-1.3,1.1-2.1v-12c0-0.3,0.2-0.6,0.3-0.8c0-0.2,0.2-0.2,0.2-0.3
	c0.2-0.2,0.2-0.5,0.3-0.6l1.6-1.6c0.2-0.2,0.5-0.5,0.8-0.5h0.2c0.6,0,1.5,0.5,1.5,1.3v5.3c-0.2,0.5-0.6,0.8-1.1,0.8
	c-0.5,0-1-0.3-1.1-0.6V7.1h-0.8v14.4c0,0.6-0.3,1.1-0.5,1.6l-0.2,0.2c-0.8,1.3-2.1,1.8-3.4,2.1c-0.3,0.2-0.6,0.2-1,0.3
	c-1.3,0.6-2.6,1.8-3.2,2.7c-0.5,0.8-1.1,2.7-0.5,4.2c0.6,1.3,1.9,2.1,3.6,2.1c0.3,0,0.6,0,1-0.2c1-0.2,1.5-0.6,1.8-1.3
	c-0.6,0.3-1.3,0.3-1.5,0.3c-1.1-0.2-1.9-1.1-1.9-2.1c0.2-1.6,1.3-2.4,2.6-3.1c0.5-0.3,1.1-0.6,1.5-1c1.6-1.5,2.6-2.4,2.6-4.4v-5.8
	c0.3-0.3,0.6-0.6,1.1-0.5c0.5,0,0.8,0.3,1,0.6v7.1c0,0.2,0,0.5-0.2,0.6c0,0-0.2,0.3-0.3,0.3l-2.9,2.6l0.5,0.5l2.9-2.6
	c0.2-0.2,0.3-0.2,0.5-0.2s0.5,0.2,0.6,0.3l2.4,2.4v0.2l0.2-0.2l3.2-3.1l-0.3-0.3l-0.3,0.3c-0.2,0.2-0.3,0.3-0.6,0.3
	c-0.2,0-0.3-0.2-0.5-0.2l-0.2-0.3c0,0-0.2-0.2-0.2-0.3c0,0-0.3-0.2-0.3-0.3V6.9c0-1.1,0.5-2.3,1.5-2.6l-0.2-0.2
	C173.2,4.2,169.4,0.5,169.4,0.5z M167.3,17l-0.5-0.2c-0.3-0.2-0.5-0.2-0.6-0.2c-0.2,0-0.3,0-0.5,0.2l-0.5,0.3V12l0.5,0.2
	c0.5,0.2,0.8,0.2,1.1-0.2l0.5-0.3C167.3,11.6,167.3,17,167.3,17z M155.5,16.3c0.3-0.2,0.8-0.2,1.1-0.3h1.6v-2.9
	c-0.5,0-0.8,0.2-1.3,0.5C156.1,14.1,155.3,15.2,155.5,16.3z M164,1.3c-0.8,0.2-1.5,0-2.1-0.2c-0.5,0-0.8-0.2-1.3-0.2
	c-0.3,0-0.8,0-1.1,0.2c-1.5,0.3-2.4,0.8-3.2,1.8c-0.8,1.1-1.1,2.3-0.8,3.6c0.8-1,1.6-1.5,2.9-1.9c0.5-0.2,1-0.3,1.6-0.3h2.6
	c0.5-0.2,0.6-0.3,1-0.6l3.4-3.2C166.1,1.1,165.3,1.3,164,1.3L164,1.3z M198.5,12.6l-4-4l-0.2-0.2h-0.3l-6.9,3.9l-0.2,0.2l-0.2,0.2
	v11.8c0,0.3-0.2,0.5-0.2,0.6s-0.2,0.3-0.3,0.3l-2.9,2.6l0.5,0.5h0.2l2.7-2.6c0.2,0,0.3-0.2,0.5-0.2s0.5,0.2,0.6,0.2l2.4,2.3h0.2
	c0,0,0.2,0,0.2,0.2c0,0,0.2-0.2,0.3-0.2l7.8-3.9c0,0,0-0.2,0.2-0.2V12.4C198.6,12.8,198.5,12.8,198.5,12.6z M194.3,25.2h-0.3
	c-0.3,0-0.6-0.3-0.8-0.5l-2.1-2.1c0-0.2-0.2-0.3-0.2-0.5v-9.4c0-0.3,0-1,0.5-1.1c0.2,0,0.3,0,0.5,0.2l1.9,1.8c0.2,0,0.2,0.2,0.3,0.3
	v0.2c0,0.2,0.2,0.5,0.2,0.6v9.7C194.4,24.7,194.4,25,194.3,25.2L194.3,25.2z M211.5,9.7c-0.3-0.5-0.8-1-0.8-1h-0.2v0.2l-2.9,2.7
	c-0.2,0-0.3,0.2-0.5,0.2c-0.2,0-0.3-0.2-0.5-0.2h-0.2l-2.7-2.7l-3.4,3.4l0.3,0.3l0.6-0.5h0.3c0.2,0,0.3,0.2,0.5,0.3l0.6,0.6
	c0.2,0.2,0.2,0.5,0.2,0.5v11.2c0,0.3-0.2,0.5-0.2,0.6l-0.3,0.3l-2.9,2.6l0.5,0.5h0.2l2.7-2.6c0.2,0,0.3-0.2,0.5-0.2s0.5,0.2,0.6,0.2
	l2.4,2.3h0.2l0.2-0.2l3.6-3.4l0.2-0.2l-0.3-0.3l-1,0.8c-0.2,0.2-0.2,0.3-0.5,0.3c-0.2,0-0.3-0.2-0.5-0.3l-0.3-0.3l-0.3-0.3
	c-0.2-0.2-0.2-0.2-0.2-0.5v-12h1.3c0.3,0,0.6-0.2,1-0.3c0.5-0.2,0.8-0.5,1.5-0.3c0.5,0.2,1.1,0.6,1.5,1.1c0.2-0.3,0.2-0.8,0.2-1.6
	C212.4,10.8,212.2,10.3,211.5,9.7L211.5,9.7z M231.4,24.7l-1.1,0.8c0,0.2-0.2,0.3-0.5,0.3c-0.2,0-0.3-0.2-0.5-0.3l-0.3-0.3
	c-0.2,0-0.2-0.2-0.3-0.3c-0.2-0.2-0.2-0.2-0.2-0.5V12.3c0-0.2,0.2-0.2,0.2-0.3l0.2-0.2l2.7-2.9l-0.5-0.5l-2.6,2.6
	c-0.2,0.2-0.5,0.2-0.6,0.2c-0.3,0-0.5-0.2-0.5-0.3l-2.9-2.7l-3.1,2.9c-0.2,0-0.3,0.2-0.5,0.2c-0.2,0-0.3-0.2-0.5-0.2h-0.2l-2.7-2.7
	l-3.4,3.4l0.3,0.3l0.6-0.5h0.3c0.2,0,0.3,0.2,0.5,0.3l0.6,0.6c0,0,0.2,0.3,0.2,0.5v11.2c0,0.3-0.2,0.5-0.2,0.6
	c0,0.2-0.2,0.3-0.3,0.3l-2.9,2.6l0.5,0.5h0.2l2.7-2.6c0.2,0,0.3-0.2,0.5-0.2c0.2,0,0.5,0.2,0.6,0.3l2.4,2.3h0.2l0.2-0.2l3.1-2.9
	l-0.3-0.3l-0.5,0.5c0,0-0.2,0.2-0.5,0.2c-0.2,0-0.3-0.2-0.5-0.3l-0.2-0.2l-0.3-0.3c-0.2-0.2-0.2-0.3-0.2-0.5V12.4
	c0-0.3,0.2-0.5,0.3-0.6v-0.2h0.2l0.2-0.2c0.2-0.2,0.3-0.3,0.5-0.3h0.3c0.3,0,0.5,0.2,0.6,0.3l1,1c0.2,0,0.2,0.2,0.2,0.2
	c0.2,0.2,0.2,0.3,0.2,0.5v11l0.2,0.2l3.6,3.6l0.2,0.2v-0.2l3.2-3.2c0,0,0-0.2,0.2-0.2L231.4,24.7L231.4,24.7z M234,4.5
	C234,4.7,234,4.7,234,4.5l1.9,2.3l2.3-2.3V4.4H238l-2.1-1.9h-0.2L234,4.5C233.8,4.5,233.8,4.5,234,4.5z"/>
<path class="st0" d="M241.8,25l-0.3-0.2h-0.2l-1,0.8c-0.2,0.2-0.2,0.3-0.5,0.3c-0.2,0-0.3-0.2-0.5-0.3l-0.3-0.3l-0.3-0.3
	c-0.2-0.2-0.3-0.3-0.3-0.5V12c0,0,0-0.2-0.2-0.2l-2.6-3.1l-3.9,3.7l0.3,0.3l0.5-0.3h0.3c0.2,0,0.3,0.2,0.5,0.2l0.8,1
	c0.2,0.2,0.2,0.3,0.2,0.5v10.5c0,0.3-0.2,0.5-0.2,0.6s-0.2,0.2-0.3,0.3l-2.9,2.6l0.5,0.5h0.2l2.7-2.6c0.2,0,0.3-0.2,0.5-0.2
	c0.2,0,0.5,0.2,0.6,0.2l2.4,2.3h0.2c0,0,0.2,0,0.2-0.2L241.8,25C241.8,25.2,241.8,25,241.8,25L241.8,25z"/>
<path class="st0" d="M259.1,24.7l-1.1,0.8c0,0.2-0.2,0.3-0.5,0.3c-0.2,0-0.3-0.2-0.5-0.2l-0.3-0.3c-0.2,0-0.2-0.2-0.3-0.3
	s-0.2-0.2-0.2-0.5V12.4c0-0.2,0.2-0.2,0.2-0.3l0.2-0.2l2.7-2.9l-0.3-0.3l-2.7,2.6c-0.2,0.2-0.5,0.2-0.6,0.2c-0.3,0-0.5-0.2-0.5-0.3
	l-2.9-2.7l-3.1,2.9c0,0-0.3,0.2-0.5,0.2c-0.2,0-0.3-0.2-0.5-0.2h-0.2l-2.7-2.7l-3.4,3.4l0.3,0.3l0.6-0.3h0.3c0.2,0,0.3,0.2,0.5,0.3
	l0.6,0.6c0,0,0.2,0.2,0.2,0.5v11.2c0,0.3-0.2,0.5-0.2,0.6s-0.2,0.3-0.3,0.3l-2.9,2.6l0.5,0.5h0.2l2.7-2.6c0.2,0,0.3-0.2,0.5-0.2
	c0.2,0,0.5,0.2,0.6,0.3l2.4,2.3h0.2l0.2-0.2l3.1-2.9L251,25l-0.5,0.5c0,0.2-0.2,0.2-0.5,0.2c-0.2,0-0.3-0.2-0.5-0.3l-0.2-0.2
	l-0.3-0.3c-0.2-0.2-0.2-0.3-0.2-0.5V12.9c0-0.3,0.2-0.5,0.3-0.6v-0.2h0.2l0.2-0.2c0.2-0.2,0.3-0.3,0.5-0.3h0.3
	c0.3,0,0.5,0.2,0.6,0.3l1,1c0.2,0,0.2,0.2,0.2,0.2c0.2,0.2,0.2,0.3,0.2,0.5v11l0.2,0.2l3.6,3.6l0.2,0.2v-0.2l3.2-3.2
	c0,0,0-0.2,0.2-0.2L259.1,24.7L259.1,24.7z"/>
<path class="st0" d="M276.3,9.1c0,0.2-0.2,0.2-0.2,0.2l-2.4,2.3c-0.2,0.2-0.3,0.3-0.6,0.3c-0.2,0-0.3-0.2-0.5-0.2l-4-2.9
	c-0.2,0-0.2-0.2-0.2-0.2h-0.3l-5.8,3.9c-0.2,0-0.2,0.2-0.3,0.3v11.6c0,0.3-0.2,0.5-0.2,0.6s-0.2,0.3-0.3,0.3l-2.9,2.6l0.5,0.5
	l2.7-2.6c0.2,0,0.3-0.2,0.5-0.2s0.5,0.2,0.6,0.3l2.4,2.3h0.2l0.2-0.2l3.1-2.9l0.2-0.2l-0.3-0.3h-0.2l-0.5,0.5
	c-0.2,0.2-0.2,0.3-0.5,0.3c-0.2,0-0.3-0.2-0.5-0.2l-0.6-0.6c0,0-0.2-0.2-0.2-0.3V11.8l3.2,2.7c0.2,0,0.3,0.2,0.3,0.5
	c0.2,0.2,0.2,0.3,0.2,0.5v8.2c0,1.3,0.3,2.1,1.1,3.2c0.3,0.6,0.8,0.8,1.1,1.1c0.3,0.2,0.6,0.5,1,0.8c0.6,0.8,0.6,1.1,0.5,1.6v0.8
	l1.6-1.6c0.8-0.8,1.1-1.5,1-2.4c-0.2-1-0.5-1.3-1.1-1.8c-0.5-0.5-1-1-1.1-1.6c0-0.2-0.2-0.3-0.2-0.5V12.3l0.2-0.3l2.6-2.7l0.2-0.2
	C276.7,9.1,276.3,9.1,276.3,9.1z"/>
<path class="st0" d="M267.8,29.9c-2.6,0.2-4.7,1.3-6,3.2c1.3-0.6,2.7-1,3.9-1h0.5c1.6,0.2,2.3,0.6,3.2,1.3c0.2,0.2,0.5,0.3,0.6,0.5
	l0.6,0.5c0,0,0.2,0,0.2,0.2h0.2l2.6-2.6l-0.5-0.3C271.3,30.2,269.9,29.7,267.8,29.9L267.8,29.9z M305.6,2.6c-0.5,0-1,0-1.5-0.2
	c-1.1-0.2-2.1-0.8-2.7-1.3c-0.3-0.3-0.6-0.5-0.8-0.5c-0.2-0.2-0.3-0.2-0.5-0.2c-0.2,0-0.3,0.2-0.5,0.3l-4.2,4l0.5,0.5l1.3-1.1
	c0.2-0.2,0.2-0.3,0.5-0.3c0.3,0,0.5,0.2,0.5,0.3l0.5,0.5c0.3,0.3,0.5,0.5,0.8,0.6c0.8,0.5,1.5,0.6,2.3,0.6h0.3v2.7l-0.2,0.2
	c-0.8,0.5-1.3,0.6-2.3,0.8c-1.1,0.2-1.9,0-2.9-0.5h-0.2l-3.7-5.7c-1.5-2.3-2.9-3.2-4.7-3.1c-1.6,0.2-2.7,0.6-3.2,1.9
	c-0.3,0.5-0.5,1.6-0.2,2.6c0.5-1,1.5-1.8,2.3-1.8c2.4,0,2.9,3.4,2.9,3.6v16.8h-0.3c-1,0-1.6,0.3-2.4,0.8c-1.1,0.6-1.8,1.3-2.3,2.3
	c-0.6,1.5-0.6,3.7,0.2,4.8c1.3,2.1,3.1,2.6,4.5,2.6h1c-1.3-0.2-2.6-1-2.9-1.5c-0.6-1-0.8-2.1-0.5-3.1c0.3-1,1.3-1.6,2.4-1.9
	c1.3-0.2,2.4,0.2,3.9,1.3l3.9-3.9l-0.3-0.3h-0.2l-1,0.6c-0.2,0.2-0.3,0.3-0.5,0.3c-0.2,0-0.3-0.2-0.5-0.3c-0.3-0.2-0.5-0.3-0.6-0.5
	c-0.2-0.2-0.3-0.3-0.6-0.5c-0.6-0.5-1.1-0.6-1.9-0.8h-0.3V20l0.2-0.2c0.8-0.5,1.6-0.8,2.7-1c1.1-0.2,2.1,0,3.4,0.5h0.2l5.8,9.1V5.8
	h0.3c1.3,0,2.1-0.3,3.1-1.3c1-0.8,1.6-1.8,1.8-2.9C307.5,2.4,306.7,2.6,305.6,2.6z M291.2,10l2.6,4l-0.2,0.2c-0.2,0.3-0.5,0.5-1,0.5
	h-0.3c-0.3,0-0.6-0.2-1-0.3l-0.2-0.2L291.2,10L291.2,10z M296.2,18.9c-1-0.3-1.6-0.3-2.4-0.2c-0.8,0.2-1.3,0.3-1.9,0.6l-0.5,0.3
	v-5.2l0.5,0.3c0.3,0.2,0.8,0.3,1.1,0.2c0.3,0,0.6-0.2,1-0.5l0.3-0.3l3.1,4.8L296.2,18.9z M302,17.5l-2.3-3.1l0.8,0.2h0.5
	c0.2,0,0.3,0,0.3-0.2l0.6-0.3V17.5z M302,13.3c-0.3,0.5-0.6,0.6-1.1,0.6h-0.2c-0.5,0-1-0.2-1.3-0.6l-2.6-4l1,0.3
	c0.6,0.3,1.1,0.3,1.9,0.3c0.6,0,1.1-0.2,1.8-0.6l0.5-0.3C302,8.9,302,13.3,302,13.3z"/>
<path class="st0" d="M285.7,17.3c0.3-0.2,0.8-0.3,1.1-0.3c0.6-0.2,1-0.2,1.6,0v-2.9c-0.5,0-0.8,0.2-1.3,0.5
	C286.5,15,285.7,16.2,285.7,17.3L285.7,17.3z M317.2,23.3l-0.3-0.2h-0.2l-2.4,2.6c-0.2,0.2-0.3,0.3-0.6,0.3c-0.2,0-0.5-0.2-0.5-0.3
	l-0.2-0.2l-0.2-0.2l-0.2-0.2l-0.2-0.2c-0.2-0.2-0.3-0.5-0.3-0.8v-3.4c0-0.2,0.2-0.3,0.3-0.5l0.2-0.2l6-6.3c0.2-0.2,0.2-0.3,0.2-0.5
	c0-0.2-0.2-0.3-0.3-0.5l-4.2-4.2l-0.2-0.2h-0.3l-6.9,4.2c0.2,0.2,0.3,0.3,0.5,0.3c0.2,0.2,0.5,0.6,0.5,1v10.5c0,0.3-0.2,0.5-0.2,0.6
	c0,0.2-0.2,0.3-0.3,0.3l-2.9,2.6l0.5,0.5h0.2l2.7-2.6c0.2,0,0.3-0.2,0.5-0.2c0.2,0,0.5,0.2,0.6,0.2l2.4,2.3h0.2c0,0,0.2,0,0.2,0.2
	v-0.3L317.2,23.3C317.1,23.4,317.1,23.4,317.2,23.3C317.2,23.4,317.2,23.3,317.2,23.3L317.2,23.3z M312.4,13.1
	c0-0.3,0.2-0.5,0.3-0.6h0.2c0.2,0,0.3,0.2,0.5,0.3l2.3,2.3c0.2,0.2,0.3,0.3,0.3,0.6c0,0.2,0,0.5-0.2,0.6l-2.3,2.1
	c-0.2,0.2-0.3,0.2-0.5,0.2h-0.2c-0.3-0.2-0.5-0.3-0.5-0.6L312.4,13.1L312.4,13.1z"/>
<path class="st0" d="M341.5,12.3l2.7-3.1l-0.5-0.5l-2.7,2.7c-0.2,0.2-0.5,0.2-0.6,0.2c-0.3,0-0.5-0.2-0.5-0.3l-2.7-2.7l-2.9,2.9
	l0.2,0.2l0.2-0.2h0.3c0.2,0,0.3,0.2,0.5,0.3l1,1.1c0,0.2,0.2,0.3,0.2,0.5v12c0,0.2,0,0.5-0.3,0.6c-0.2,0.2-0.5,0.2-0.6,0l-2.1-1.6
	c-0.2,0-0.2-0.2-0.3-0.3c0-0.2-0.2-0.2-0.2-0.3v-12l-3.4-3.2l-2.9,3.1l0.2,0.2l0.2-0.2h0.3c0.3,0,0.5,0.2,0.5,0.3l0.8,1
	c0.2,0.2,0.2,0.3,0.2,0.5v9.9c0,0.2,0,0.3-0.2,0.5c-0.2,0.2-0.3,0.3-0.5,0.3l-1.5,1.3h-0.2c-0.3,0-0.5-0.2-0.6-0.3
	c-0.2-0.2-0.3-0.3-0.3-0.6v-16c0-0.8-0.5-1-1.5-1.5c-0.5-0.2-0.8-0.3-1.3-0.6c-1.6-1.1-1.9-2.3-1.9-2.7c0-0.2,0-0.5-0.2-0.8
	c0-0.5-0.2-1.1-0.2-1.3c0,0.2,0,0.2-0.2,0.3c0,0.3-0.3,0.6-0.6,1.1l-0.2,0.2c-0.5,0.6-0.8,1.1-0.8,1.9c0,0.6,0.5,1.1,1,1.6l0.8,0.8
	c0.3,0.5,0.5,1,0.5,1.5v15.7c0,0.2,0,0.3-0.2,0.5v0.2c0,0.2-0.2,0.2-0.3,0.3l-3.1,2.7l0.5,0.5l2.7-2.6c0.2,0,0.3-0.2,0.5-0.2
	c0.2,0,0.5,0,0.6,0.3l2.4,2.4l0.2-0.2l3.2-3.1c0.2,0,0.3-0.2,0.5-0.2c0.2,0,0.5,0.2,0.5,0.2h0.2l3.4,3.2c0,0,0.2,0.2,0.3,0.2h0.3
	l7.3-3.7V13.9c0-0.3,0.2-0.5,0.5-0.6l0.3-0.3C341.3,12.4,341.5,12.4,341.5,12.3L341.5,12.3z M356,17.1h-5.2L356,10c1.1-1,1-3.7,1-4
	c0-0.3-0.5-1.3-1.1-1.6c-0.2,0-0.6-0.2-1-0.2h-0.3c0,0,0.2,0,0.2,0.2l0.3,0.2c0.8,0.6,1.6,1.5,1.6,2.7c0,1.3-0.6,2.3-1.8,2.6
	c-0.2,0-0.3,0.2-0.6,0.2c-0.8,0-1.5-0.5-1.9-0.8c-0.2-0.2-0.2-0.2-0.3-0.2l-0.3-0.3h-0.2l-7.4,4l-0.2,0.2v5.5h5l-5,7.3
	c-1,0.6-1.8,2.6-1.9,3.7c0,1.3,0,2.6,1,3.2c0.3,0.2,0.8,0.3,1.3,0.3h0.2c-0.2,0-0.3-0.2-0.3-0.2c-1-1-1.8-1.8-1.8-3.1
	c0-2.3,2.3-3.4,4.4-3.6c2.1-0.2,3.9,1.5,4.8,2.4c0.2,0.2,0.2,0.2,0.2,0.3l4-3.9v-7.8C356.2,17.3,356.2,17.1,356,17.1L356,17.1z
	 M348.9,17.1c-0.3,0-0.5-0.2-0.6-0.3s-0.2-0.3-0.2-0.5v-5l0.6,0.5c0.6,0.5,1.3,0.8,1.9,0.8h0.8c0.5,0,0.8,0,1.3-0.2l1-0.3l-3.6,4.8
	C350.2,17,348.9,17.1,348.9,17.1z M351.7,24.2c0,0.3-0.2,0.5-0.3,0.6h-0.2c-0.2,0-0.3,0-0.3-0.2c-0.6-0.3-1.1-0.5-1.8-0.5
	c-1,0-1.6,0-2.6,0.5l-1.1,0.5l4.4-6.5h1.9L351.7,24.2L351.7,24.2z"/>
</svg>
