<svg id="Layer_1" xmlns="http://www.w3.org/2000/svg" viewBox="0 0 219.81 93.76">
  <style>
    .st0{fill:#fff}
  </style>
  <path class="st0" d="M28.01.05c1.33-.31 1.06.91 0 3.33S11.05 36.24 4.54 68.18c0 0 19.23-13.02 34.52-12.42 0 0 2.57.76 0 1.51-2.57.76-22.86 5.75-34.52 16.5L0 74.69s3.94-18.32 9.99-34.98S25.44.65 28.01.05z"/>
  <path class="st0" d="M65.86 55.98c-.61 2.48-3.03 4.64-3.03 4.64-1.06-4.54.76-16.2.91-18.78.15-2.57-2.42-3.03-3.03-3.03-.61 0-3.48-4.69-3.79-5.15-.3-.45-.12-4.03-2.12-3.03-3.63 1.82-8.63 7.72-8.63 7.72-2.88 2.73-6.96 12.11-7.42 15.6-.45 3.48 2.73 4.54 4.55 5.15s3.93 1.67 6.5-1.06 9.39-8.93 9.39-8.93v11.66c0 1.97 2.88 5.75 5.75 1.51 2.89-4.24.92-6.3.92-6.3zM48.45 54.4c-5.45 4.09-6.21-.3-3.94-7.42s8.18-10.14 9.39-10.6c0 0 2.57 4.69 3.48 5.45.91.76 1.06 3.33 1.06 3.33s-4.54 5.16-9.99 9.24z"/>
  <path class="st0" d="M66.4 57.15l3.67-12.13s1.49 9.75 8.12 10.02c6.63.27 12.18-2.84 12.18-2.84s-3.11 7.45-5.69 18.14c-2.57 10.7-4.06 20.31-3.66 23.42l3.79-.54S84 91.19 84 90.38s2.57-9.75 3.25-12.45c.68-2.71 2.98-15.3 4.6-19.36s4.6-13.54 4.6-13.54 2.03-1.22 3.93-3.93c1.9-2.71 3.25-9.51 2.98-10.64s-2.03-2.08-2.03-2.08-3.79 2.57-4.87 6.36c-1.08 3.79-3.66 11.78-12.86 14.62s-10.83-9.34-10.83-9.34-.41-1.35-2.57-1.9l-.95 3.11-3.4 14.74.55 1.18zM104.06 52.88s-.68 2.81 0 3.1c.68.29 2.84-.93 2.84-.93s13.27-17.6 14.76-20.71c0 0 0 16.38 5.69 16.52 5.69.14 9.61-5.67 9.61-5.67s1.9 4.59 11.1 4.72c9.21.14 18.01-1.49 33.57-3.38 15.57-1.9 38.18-7.72 38.18-7.72l-5.96-.81s-35.88 6.9-57.94 7.99-12.73-9.07-12.73-9.07 2.57-2.71.68-3.79-3.11.68-3.93 1.9c-.81 1.22-7.31 11.69-11.78 12.05l-1.9-19.9-2.84-2.17-19.35 27.87z"/>
</svg>